<svg width="499" height="138" viewBox="0 0 499 138" fill="none" xmlns="http://www.w3.org/2000/svg">
<path d="M209.959 113L222.033 40.2727H239.611L234.533 71.0256H235.491L264.611 40.2727H285.314L254.241 72.7301L273.702 113H252.679L239.469 84.4134L230.804 93.3977L227.537 113H209.959ZM301.596 114.03C295.843 114.03 291.096 112.846 287.356 110.479C283.639 108.111 281.023 104.809 279.508 100.571C277.993 96.3333 277.697 91.4091 278.62 85.7983C279.543 80.2112 281.449 75.3106 284.337 71.0966C287.226 66.8826 290.919 63.6037 295.417 61.2599C299.915 58.9162 305.017 57.7443 310.722 57.7443C316.451 57.7443 321.174 58.928 324.891 61.2955C328.632 63.6629 331.26 66.9654 332.775 71.2031C334.314 75.4408 334.621 80.3769 333.698 86.0114C332.775 91.5985 330.857 96.4991 327.945 100.713C325.033 104.903 321.34 108.17 316.866 110.514C312.391 112.858 307.301 114.03 301.596 114.03ZM303.549 100.926C305.68 100.926 307.585 100.287 309.266 99.0085C310.971 97.7301 312.403 95.9427 313.563 93.6463C314.723 91.3499 315.552 88.6866 316.049 85.6562C316.546 82.6733 316.594 80.0573 316.191 77.8082C315.812 75.5355 315.007 73.7718 313.776 72.517C312.545 71.2386 310.876 70.5994 308.769 70.5994C306.638 70.5994 304.721 71.2505 303.016 72.5526C301.312 73.831 299.879 75.6184 298.719 77.9148C297.583 80.1875 296.766 82.8509 296.269 85.9048C295.772 88.8878 295.713 91.5038 296.092 93.7528C296.47 96.0019 297.287 97.7656 298.542 99.044C299.797 100.299 301.466 100.926 303.549 100.926ZM357.935 113.781C353.91 113.781 350.418 112.74 347.459 110.656C344.5 108.573 342.381 105.448 341.102 101.281C339.848 97.1146 339.729 91.9418 340.747 85.7628C341.813 79.3471 343.706 74.0677 346.429 69.9247C349.152 65.7817 352.324 62.7159 355.946 60.7273C359.592 58.7386 363.309 57.7443 367.097 57.7443C369.961 57.7443 372.329 58.2415 374.199 59.2358C376.093 60.2064 377.572 61.4612 378.638 63C379.703 64.5388 380.437 66.1368 380.839 67.794H381.23L385.811 40.2727H403.176L391.102 113H373.915L375.371 104.158H374.838C373.82 105.839 372.518 107.413 370.932 108.881C369.346 110.348 367.464 111.532 365.286 112.432C363.131 113.331 360.681 113.781 357.935 113.781ZM366.138 100.251C368.245 100.251 370.151 99.6596 371.855 98.4759C373.56 97.2685 374.992 95.5758 376.152 93.3977C377.336 91.2197 378.164 88.6629 378.638 85.7273C379.135 82.7443 379.159 80.1757 378.709 78.0213C378.259 75.867 377.371 74.2098 376.045 73.0497C374.743 71.8897 373.027 71.3097 370.896 71.3097C368.766 71.3097 366.86 71.9015 365.179 73.0852C363.498 74.2689 362.101 75.938 360.989 78.0923C359.876 80.2467 359.071 82.7917 358.574 85.7273C358.1 88.6629 358.053 91.2197 358.432 93.3977C358.834 95.5758 359.675 97.2685 360.953 98.4759C362.255 99.6596 363.983 100.251 366.138 100.251ZM427.572 114.03C421.82 114.03 417.073 112.846 413.332 110.479C409.616 108.111 407 104.809 405.484 100.571C403.969 96.3333 403.673 91.4091 404.597 85.7983C405.52 80.2112 407.426 75.3106 410.314 71.0966C413.202 66.8826 416.895 63.6037 421.393 61.2599C425.892 58.9162 430.993 57.7443 436.699 57.7443C442.428 57.7443 447.151 58.928 450.868 61.2955C454.608 63.6629 457.236 66.9654 458.751 71.2031C460.29 75.4408 460.598 80.3769 459.675 86.0114C458.751 91.5985 456.834 96.4991 453.922 100.713C451.01 104.903 447.317 108.17 442.842 110.514C438.368 112.858 433.278 114.03 427.572 114.03ZM429.526 100.926C431.656 100.926 433.562 100.287 435.243 99.0085C436.947 97.7301 438.38 95.9427 439.54 93.6463C440.7 91.3499 441.528 88.6866 442.026 85.6562C442.523 82.6733 442.57 80.0573 442.168 77.8082C441.789 75.5355 440.984 73.7718 439.753 72.517C438.522 71.2386 436.853 70.5994 434.746 70.5994C432.615 70.5994 430.697 71.2505 428.993 72.5526C427.288 73.831 425.856 75.6184 424.696 77.9148C423.56 80.1875 422.743 82.8509 422.246 85.9048C421.749 88.8878 421.689 91.5038 422.068 93.7528C422.447 96.0019 423.264 97.7656 424.518 99.044C425.773 100.299 427.442 100.926 429.526 100.926Z" fill="white"/>
<path fill-rule="evenodd" clip-rule="evenodd" d="M75 120C97.0914 120 115 102.091 115 80C115 57.9086 97.0914 40 75 40C52.9086 40 35 57.9086 35 80C35 102.091 52.9086 120 75 120ZM75 100C86.0457 100 95 91.0457 95 80C95 68.9543 86.0457 60 75 60C63.9543 60 55 68.9543 55 80C55 91.0457 63.9543 100 75 100Z" fill="white"/>
<path fill-rule="evenodd" clip-rule="evenodd" d="M12.0863 130C7.06663 123.738 2.96921 116.705 0 109.107L14.6538 83.7259C15.8375 103.046 26.1644 119.895 41.3621 130H12.0863ZM149.08 109.107C146.111 116.705 142.013 123.738 136.994 130H107.718C122.916 119.895 133.242 103.046 134.426 83.7259L149.08 109.107ZM86.6092 0.904441C82.6729 0.308806 78.6425 0 74.54 0C70.4375 0 66.4071 0.308806 62.4708 0.904441L47.8338 26.2564C55.8767 22.2521 64.9454 20 74.54 20C84.1347 20 93.2033 22.2521 101.246 26.2564L86.6092 0.904441Z" fill="white"/>
</svg>
