<svg width="391" height="137" viewBox="0 0 391 137" fill="none" xmlns="http://www.w3.org/2000/svg">
<path d="M150.064 81.096L146.288 71.176L171.76 48.2H186.864L150.064 81.096ZM141.488 93V48.2H154.16V93H141.488ZM173.168 93L155.76 70.984L163.76 63.368L187.952 93H173.168ZM217.841 93.64C214.043 93.64 210.566 93.064 207.409 91.912C204.294 90.76 201.563 89.1387 199.217 87.048C196.913 84.9147 195.121 82.44 193.841 79.624C192.603 76.808 191.985 73.7147 191.985 70.344C191.985 66.9733 192.603 63.88 193.841 61.064C195.121 58.248 196.913 55.7947 199.217 53.704C201.563 51.5707 204.294 49.928 207.409 48.776C210.566 47.624 214.043 47.048 217.841 47.048C221.595 47.048 225.03 47.624 228.145 48.776C231.302 49.928 234.033 51.5707 236.337 53.704C238.683 55.7947 240.475 58.248 241.713 61.064C242.993 63.88 243.633 66.952 243.633 70.28C243.633 73.6507 242.993 76.7653 241.713 79.624C240.475 82.44 238.683 84.9147 236.337 87.048C234.033 89.1387 231.302 90.76 228.145 91.912C225.03 93.064 221.595 93.64 217.841 93.64ZM217.841 81.864C219.675 81.864 221.382 81.5867 222.961 81.032C224.539 80.4773 225.905 79.688 227.057 78.664C228.251 77.5973 229.147 76.36 229.745 74.952C230.385 73.544 230.705 72.008 230.705 70.344C230.705 68.68 230.385 67.144 229.745 65.736C229.147 64.328 228.251 63.112 227.057 62.088C225.905 61.0213 224.539 60.2107 222.961 59.656C221.382 59.1013 219.675 58.824 217.841 58.824C215.963 58.824 214.235 59.1013 212.657 59.656C211.078 60.2107 209.691 61.0213 208.497 62.088C207.345 63.1547 206.449 64.392 205.809 65.8C205.211 67.1653 204.913 68.68 204.913 70.344C204.913 72.008 205.211 73.544 205.809 74.952C206.449 76.3173 207.345 77.5333 208.497 78.6C209.691 79.6667 211.078 80.4773 212.657 81.032C214.235 81.5867 215.963 81.864 217.841 81.864ZM255.801 93V48.2H277.177C280.889 48.2 284.238 48.776 287.225 49.928C290.211 51.08 292.793 52.68 294.969 54.728C297.145 56.7333 298.809 59.1013 299.961 61.832C301.113 64.52 301.689 67.4427 301.689 70.6C301.689 73.7573 301.113 76.7013 299.961 79.432C298.809 82.1627 297.145 84.5307 294.969 86.536C292.793 88.5413 290.211 90.12 287.225 91.272C284.238 92.424 280.889 93 277.177 93H255.801ZM268.473 84.936L266.489 82.056H276.857C278.777 82.056 280.462 81.7573 281.913 81.16C283.406 80.5627 284.643 79.752 285.625 78.728C286.606 77.6613 287.374 76.4453 287.929 75.08C288.483 73.7147 288.761 72.2213 288.761 70.6C288.761 69.0213 288.483 67.5493 287.929 66.184C287.374 64.776 286.585 63.56 285.561 62.536C284.579 61.4693 283.363 60.6373 281.913 60.04C280.462 59.4427 278.777 59.144 276.857 59.144H266.297L268.473 56.392V84.936ZM336.903 93.64C333.106 93.64 329.628 93.064 326.471 91.912C323.356 90.76 320.626 89.1387 318.279 87.048C315.975 84.9147 314.183 82.44 312.903 79.624C311.666 76.808 311.047 73.7147 311.047 70.344C311.047 66.9733 311.666 63.88 312.903 61.064C314.183 58.248 315.975 55.7947 318.279 53.704C320.626 51.5707 323.356 49.928 326.471 48.776C329.628 47.624 333.106 47.048 336.903 47.048C340.658 47.048 344.092 47.624 347.207 48.776C350.364 49.928 353.095 51.5707 355.399 53.704C357.746 55.7947 359.538 58.248 360.775 61.064C362.055 63.88 362.695 66.952 362.695 70.28C362.695 73.6507 362.055 76.7653 360.775 79.624C359.538 82.44 357.746 84.9147 355.399 87.048C353.095 89.1387 350.364 90.76 347.207 91.912C344.092 93.064 340.658 93.64 336.903 93.64ZM336.903 81.864C338.738 81.864 340.444 81.5867 342.023 81.032C343.602 80.4773 344.967 79.688 346.119 78.664C347.314 77.5973 348.21 76.36 348.807 74.952C349.447 73.544 349.767 72.008 349.767 70.344C349.767 68.68 349.447 67.144 348.807 65.736C348.21 64.328 347.314 63.112 346.119 62.088C344.967 61.0213 343.602 60.2107 342.023 59.656C340.444 59.1013 338.738 58.824 336.903 58.824C335.026 58.824 333.298 59.1013 331.719 59.656C330.14 60.2107 328.754 61.0213 327.559 62.088C326.407 63.1547 325.511 64.392 324.871 65.8C324.274 67.1653 323.975 68.68 323.975 70.344C323.975 72.008 324.274 73.544 324.871 74.952C325.511 76.3173 326.407 77.5333 327.559 78.6C328.754 79.6667 330.14 80.4773 331.719 81.032C333.298 81.5867 335.026 81.864 336.903 81.864Z" fill="white"/>
<circle cx="56" cy="69" r="50" fill="url(#paint0_linear_35_351)"/>
<path fill-rule="evenodd" clip-rule="evenodd" d="M73.0977 57.6044L72.5512 57.8712C72.3701 57.9728 72.1786 58.0591 71.9798 58.1297C69.8677 59.0543 69.2004 60.1596 69.1863 60.1596C69.1294 60.3438 69.1578 60.2371 69.0691 60.4126C67.8941 62.6703 65.9599 64.4491 63.6173 65.4185C62.2584 65.9813 60.8207 66.2656 59.3515 66.2656C55.6279 66.2656 52.2387 64.4317 50.251 61.4924C49.8499 62.0917 49.406 62.6614 48.8807 63.1697C46.8222 65.1672 44.0826 66.2656 41.1722 66.2656C38.2582 66.2656 35.5216 65.1652 33.4633 63.1697C32.157 61.8986 31.2699 60.3472 30.7619 58.6719C25.9461 60.227 23 62.2638 23 64.5022C23 69.3718 36.8318 73.3186 53.8928 73.3186C70.954 73.3186 84.7855 69.3718 84.7855 64.5022C84.7853 61.7061 80.21 59.2195 73.0977 57.6044ZM53.8925 76.8453C50.1658 76.8453 45.6905 76.6147 41.2145 76.0636L53.8925 97.9339L66.5703 76.0636C62.095 76.6147 57.6192 76.8453 53.8925 76.8453ZM55.9939 101.5C66.4569 101.3 75.4757 99.6161 80.5085 97.1746L70.1516 77.0777L55.9939 101.5ZM83.543 95.1751C84.3383 94.3939 84.7853 93.5689 84.7853 92.7149V70.5672C81.9708 72.5853 77.754 73.9869 73.1297 74.9669L83.543 95.1751ZM27.277 97.1746C32.3096 99.6161 41.3283 101.3 51.7917 101.5L37.6337 77.0777L27.277 97.1746ZM23 70.5672V92.7149C23 93.5689 23.4472 94.3939 24.2425 95.1751L34.6558 74.9669C30.0313 73.9869 25.8143 72.5853 23 70.5672ZM46.3114 60.6745C47.5821 59.4418 48.2494 57.8663 48.3843 56.2561C48.3843 56.2561 48.3986 53.6611 51.4224 50.7287L65.5337 37.0204C66.957 35.6431 66.9537 33.4113 65.5337 32.034C64.1176 30.6562 61.8145 30.6545 60.3948 32.034L45.9103 46.1021C43.1381 48.7918 40.6536 48.6555 40.6536 48.6555L40.6431 48.6831C38.9644 48.8018 37.3175 49.453 36.0324 50.6995C33.1933 53.4551 33.1933 57.9216 36.0324 60.6748C38.8688 63.4281 43.4723 63.4281 46.3114 60.6745ZM89.2075 42.0744C88.4197 40.2872 86.2865 39.4484 84.4375 40.2132L67.4294 48.5092C63.8232 50.0006 61.5695 48.9745 61.5695 48.9745L61.5483 48.9966C59.9475 48.4974 58.1696 48.5043 56.4978 49.1982C52.8029 50.7238 51.0849 54.8688 52.661 58.452C54.23 62.0336 58.5035 63.7006 62.1943 62.1748C63.845 61.4914 65.0729 60.2705 65.8215 58.8275C65.8215 58.8275 66.8296 56.4221 70.7617 54.7979L87.2872 46.7033C89.1367 45.94 89.9955 43.8685 89.2075 42.0744Z" fill="white"/>
<defs>
<linearGradient id="paint0_linear_35_351" x1="70.5" y1="36" x2="-37" y2="172" gradientUnits="userSpaceOnUse">
<stop stop-color="#13A3E5"/>
<stop offset="1" stop-color="#1398D5" stop-opacity="0"/>
</linearGradient>
</defs>
</svg>
