<svg width="760" height="130" viewBox="0 0 760 130" fill="none" xmlns="http://www.w3.org/2000/svg">
<path fill-rule="evenodd" clip-rule="evenodd" d="M74.54 0C78.6425 0 82.6729 0.308806 86.6092 0.904441L101.246 26.2564C93.2033 22.2521 84.1347 20 74.54 20C64.9454 20 55.8767 22.2521 47.8338 26.2564L62.4708 0.904441C66.4071 0.308806 70.4375 0 74.54 0ZM115 80C115 102.091 97.0914 120 75 120C52.9086 120 35 102.091 35 80C35 57.9086 52.9086 40 75 40C97.0914 40 115 57.9086 115 80ZM95 80C95 91.0457 86.0457 100 75 100C63.9543 100 55 91.0457 55 80C55 68.9543 63.9543 60 75 60C86.0457 60 95 68.9543 95 80ZM0 109.107C2.96921 116.705 7.06663 123.738 12.0863 130H41.3621C26.1644 119.895 15.8375 103.046 14.6538 83.7259L0 109.107ZM149.08 109.107C146.111 116.705 142.013 123.738 136.994 130H107.718C122.916 119.895 133.242 103.046 134.426 83.7259L149.08 109.107Z" fill="url(#paint0_linear_141_16)"/>
<path d="M250.643 71.202C250.643 75.822 249.983 80.0716 248.664 83.9509C247.373 87.8302 245.581 91.1806 243.287 94.0019C240.993 96.788 238.268 98.9745 235.114 100.562C231.959 102.149 228.532 102.942 224.833 102.942H194.635C193.832 102.942 193.087 102.766 192.398 102.413C191.71 102.06 191.108 101.584 190.592 100.985C190.104 100.35 189.717 99.6093 189.43 98.7629C189.143 97.9165 189 96.9996 189 96.0121V34.0134C189 33.0612 189.143 32.1619 189.43 31.3155C189.717 30.4691 190.104 29.7285 190.592 29.0937C191.108 28.4589 191.71 27.9651 192.398 27.6125C193.087 27.2598 193.832 27.0835 194.635 27.0835H224.833C228.532 27.0835 231.959 27.877 235.114 29.464C238.268 31.051 240.993 33.2551 243.287 36.0765C245.581 38.8625 247.373 42.2129 248.664 46.1275C249.983 50.0068 250.643 54.2388 250.643 58.8234V71.202ZM239.458 58.8234C239.458 56.1432 239.1 53.6921 238.383 51.4703C237.695 49.2486 236.705 47.3618 235.415 45.8101C234.124 44.2231 232.576 43.0064 230.769 42.16C228.991 41.2783 227.012 40.8375 224.833 40.8375H200.184V89.188H224.833C227.012 89.188 228.991 88.7648 230.769 87.9184C232.576 87.0367 234.124 85.82 235.415 84.2683C236.705 82.6813 237.695 80.7946 238.383 78.608C239.1 76.3862 239.458 73.9176 239.458 71.202V58.8234Z" fill="white"/>
<path d="M323.254 52.5812C323.254 55.72 322.939 58.5237 322.308 60.9923C321.677 63.461 320.817 65.6475 319.727 67.5519C318.666 69.4211 317.433 71.0257 316.027 72.3658C314.622 73.706 313.145 74.8169 311.597 75.6985C310.077 76.5449 308.528 77.1621 306.951 77.55C305.402 77.938 303.94 78.1319 302.563 78.1319L325.921 102.942H308.629L285.314 78.1319H277.27V64.3779H302.563C303.969 64.2369 305.245 63.8842 306.392 63.3199C307.568 62.7204 308.571 61.9269 309.403 60.9394C310.263 59.952 310.923 58.7705 311.382 57.3951C311.841 55.9845 312.07 54.3798 312.07 52.5812V43.9057C312.07 43.1298 311.984 42.5479 311.812 42.16C311.668 41.7368 311.468 41.437 311.21 41.2607C310.98 41.0491 310.722 40.9256 310.435 40.8904C310.177 40.8551 309.934 40.8375 309.704 40.8375H272.796V102.942H261.612V34.0134C261.612 33.0612 261.755 32.1619 262.042 31.3155C262.329 30.4691 262.716 29.7285 263.203 29.0937C263.72 28.4589 264.322 27.9651 265.01 27.6125C265.698 27.2598 266.444 27.0835 267.247 27.0835H309.704C312.199 27.0835 314.307 27.6477 316.027 28.7763C317.748 29.8695 319.139 31.2626 320.2 32.9554C321.29 34.6129 322.064 36.4115 322.523 38.3512C323.01 40.2908 323.254 42.1071 323.254 43.7999V52.5812Z" fill="white"/>
<path d="M394.92 96.0121C394.92 96.9996 394.776 97.9165 394.489 98.7629C394.203 99.6093 393.801 100.35 393.285 100.985C392.769 101.584 392.167 102.06 391.478 102.413C390.79 102.766 390.059 102.942 389.284 102.942H364.077C361.697 102.942 359.288 102.625 356.85 101.99C354.412 101.355 352.047 100.385 349.752 99.0803C347.487 97.7402 345.35 96.0474 343.343 94.0019C341.335 91.9564 339.572 89.5407 338.052 86.7546C336.561 83.9333 335.385 80.724 334.525 77.1268C333.664 73.4944 333.234 69.4563 333.234 65.0127V27.0835H344.418V65.0127C344.418 68.8921 344.849 72.1719 345.709 74.8521C346.598 77.5324 347.716 79.7718 349.064 81.5704C350.412 83.369 351.889 84.7797 353.495 85.8024C355.101 86.8251 356.621 87.5834 358.055 88.0771C359.517 88.5708 360.793 88.8882 361.883 89.0293C363.001 89.1351 363.733 89.188 364.077 89.188H383.735V27.0835H394.92V96.0121Z" fill="white"/>
<path d="M479.748 102.942H468.478V57.7654L448.647 100.667C448.16 101.761 447.471 102.589 446.582 103.154C445.722 103.718 444.79 104 443.786 104C442.811 104 441.894 103.718 441.033 103.154C440.202 102.589 439.542 101.761 439.054 100.667L419.138 57.7654V102.942H407.954V32.9554C407.954 31.3684 408.326 29.9577 409.072 28.7234C409.846 27.489 410.85 26.6603 412.083 26.2371C412.685 26.0607 413.288 26.0078 413.89 26.0784C414.492 26.1136 415.066 26.2723 415.611 26.5545C416.184 26.8013 416.7 27.1716 417.159 27.6654C417.618 28.1238 418.005 28.6881 418.321 29.3582L443.786 83.7922L469.252 29.3582C469.912 28.018 470.815 27.0658 471.962 26.5016C473.138 25.9373 474.357 25.8491 475.618 26.2371C476.823 26.6603 477.812 27.489 478.587 28.7234C479.361 29.9577 479.748 31.3684 479.748 32.9554V102.942Z" fill="white"/>
<path d="M554.338 86.2785C554.338 87.9713 554.095 89.7875 553.607 91.7272C553.148 93.6669 552.374 95.4655 551.284 97.123C550.223 98.7805 548.832 100.174 547.112 101.302C545.391 102.395 543.283 102.942 540.788 102.942H498.331C497.528 102.942 496.783 102.766 496.094 102.413C495.406 102.06 494.804 101.584 494.288 100.985C493.8 100.35 493.413 99.6093 493.126 98.7629C492.839 97.9165 492.696 96.9996 492.696 96.0121V34.0134C492.696 33.0612 492.839 32.1619 493.126 31.3155C493.413 30.4691 493.8 29.7285 494.288 29.0937C494.804 28.4589 495.406 27.9651 496.094 27.6125C496.783 27.2598 497.528 27.0835 498.331 27.0835H535.755C537.132 27.0835 538.609 27.3832 540.186 27.9828C541.763 28.5823 543.226 29.5521 544.574 30.8923C545.95 32.1971 547.083 33.9076 547.972 36.0236C548.89 38.1396 549.349 40.7317 549.349 43.7999V46.392C549.349 48.8254 549.019 51.4527 548.359 54.274C547.7 57.0601 546.639 59.7051 545.176 62.209C546.438 63.1612 547.614 64.3074 548.703 65.6475C549.822 66.9877 550.797 68.5394 551.628 70.3027C552.46 72.0661 553.12 74.0586 553.607 76.2804C554.095 78.5022 554.338 80.9533 554.338 83.6335V86.2785ZM543.154 83.6335C543.154 81.8349 542.925 80.2303 542.466 78.8196C542.007 77.3737 541.362 76.1394 540.53 75.1166C539.699 74.0939 538.695 73.318 537.519 72.789C536.343 72.2248 535.024 71.9426 533.562 71.9426H508.354V58.0828H528.529C529.991 58.0828 531.31 57.8183 532.486 57.2893C533.662 56.7251 534.666 55.9316 535.497 54.9088C536.329 53.8861 536.96 52.6694 537.39 51.2587C537.849 49.8128 538.078 48.1906 538.078 46.392V43.7999C538.078 41.8249 537.304 40.8375 535.755 40.8375H503.88V89.188H540.788C540.989 89.188 541.233 89.1704 541.52 89.1351C541.806 89.0998 542.064 88.994 542.294 88.8177C542.523 88.6414 542.724 88.3416 542.896 87.9184C543.068 87.4952 543.154 86.9133 543.154 86.1727V83.6335Z" fill="white"/>
<path d="M614.82 71.9426H579.503V58.0828H614.82V71.9426ZM619.852 102.942H579.503C577.954 102.942 576.263 102.607 574.427 101.937C572.592 101.267 570.885 100.174 569.308 98.6571C567.76 97.1054 566.455 95.1128 565.394 92.6794C564.361 90.2107 563.845 87.1954 563.845 83.6335V34.0134C563.845 33.0612 563.988 32.1619 564.275 31.3155C564.562 30.4691 564.949 29.7285 565.437 29.0937C565.953 28.4589 566.555 27.9651 567.243 27.6125C567.932 27.2598 568.677 27.0835 569.48 27.0835H619.852V40.8375H575.029V83.6335C575.029 85.4321 575.417 86.8075 576.191 87.7597C576.965 88.7119 578.098 89.188 579.589 89.188H619.852V102.942Z" fill="white"/>
<path d="M691.217 102.942H680.032V84.3212H640.715V102.942H629.531V65.0127C629.531 59.4759 630.305 54.3798 631.854 49.7246C633.403 45.0695 635.553 41.0667 638.307 37.7164C641.06 34.366 644.314 31.7563 648.071 29.8872C651.828 28.018 655.929 27.0835 660.374 27.0835H685.582C686.356 27.0835 687.087 27.2598 687.775 27.6125C688.464 27.9651 689.066 28.4589 689.582 29.0937C690.098 29.7285 690.5 30.4691 690.787 31.3155C691.073 32.1619 691.217 33.0612 691.217 34.0134V102.942ZM640.715 70.5672H680.032V40.8375H660.374C660.03 40.8375 659.299 40.908 658.18 41.0491C657.09 41.1549 655.814 41.4546 654.352 41.9484C652.918 42.4421 651.398 43.2003 649.792 44.2231C648.186 45.2458 646.709 46.6565 645.361 48.4551C644.013 50.2536 642.895 52.5107 642.006 55.2262C641.146 57.9065 640.715 61.1687 640.715 65.0127V70.5672Z" fill="white"/>
<path d="M760 40.8375H735.352V102.942H724.167V40.8375H699.476V27.0835H760V40.8375Z" fill="white"/>
<defs>
<linearGradient id="paint0_linear_141_16" x1="46" y1="-40" x2="149" y2="169.5" gradientUnits="userSpaceOnUse">
<stop stop-color="#317DFF"/>
<stop offset="1" stop-color="white"/>
</linearGradient>
</defs>
</svg>
