<svg width="582" height="138" viewBox="0 0 582 138" fill="none" xmlns="http://www.w3.org/2000/svg">
<path d="M209.959 113L222.033 40.2727H239.611L234.533 71.0256H235.491L264.611 40.2727H285.314L254.241 72.7301L273.702 113H252.679L239.469 84.4134L230.804 93.3977L227.537 113H209.959ZM296.596 114.03C290.843 114.03 286.096 112.846 282.356 110.479C278.639 108.111 276.023 104.809 274.508 100.571C272.993 96.3333 272.697 91.4091 273.62 85.7983C274.543 80.2112 276.449 75.3106 279.337 71.0966C282.226 66.8826 285.919 63.6037 290.417 61.2599C294.915 58.9162 300.017 57.7443 305.722 57.7443C311.451 57.7443 316.174 58.928 319.891 61.2955C323.632 63.6629 326.26 66.9654 327.775 71.2031C329.314 75.4408 329.621 80.3769 328.698 86.0114C327.775 91.5985 325.857 96.4991 322.945 100.713C320.033 104.903 316.34 108.17 311.866 110.514C307.391 112.858 302.301 114.03 296.596 114.03ZM298.549 100.926C300.68 100.926 302.585 100.287 304.266 99.0085C305.971 97.7301 307.403 95.9427 308.563 93.6463C309.723 91.3499 310.552 88.6866 311.049 85.6562C311.546 82.6733 311.594 80.0573 311.191 77.8082C310.812 75.5355 310.007 73.7718 308.776 72.517C307.545 71.2386 305.876 70.5994 303.769 70.5994C301.638 70.5994 299.721 71.2505 298.016 72.5526C296.312 73.831 294.879 75.6184 293.719 77.9148C292.583 80.1875 291.766 82.8509 291.269 85.9048C290.772 88.8878 290.713 91.5038 291.092 93.7528C291.47 96.0019 292.287 97.7656 293.542 99.044C294.797 100.299 296.466 100.926 298.549 100.926ZM347.935 113.781C343.91 113.781 340.418 112.74 337.459 110.656C334.5 108.573 332.381 105.448 331.102 101.281C329.848 97.1146 329.729 91.9418 330.747 85.7628C331.813 79.3471 333.706 74.0677 336.429 69.9247C339.152 65.7817 342.324 62.7159 345.946 60.7273C349.592 58.7386 353.309 57.7443 357.097 57.7443C359.961 57.7443 362.329 58.2415 364.199 59.2358C366.093 60.2064 367.572 61.4612 368.638 63C369.703 64.5388 370.437 66.1368 370.839 67.794H371.23L375.811 40.2727H393.176L381.102 113H363.915L365.371 104.158H364.838C363.82 105.839 362.518 107.413 360.932 108.881C359.346 110.348 357.464 111.532 355.286 112.432C353.131 113.331 350.681 113.781 347.935 113.781ZM356.138 100.251C358.245 100.251 360.151 99.6596 361.855 98.4759C363.56 97.2685 364.992 95.5758 366.152 93.3977C367.336 91.2197 368.164 88.6629 368.638 85.7273C369.135 82.7443 369.159 80.1757 368.709 78.0213C368.259 75.867 367.371 74.2098 366.045 73.0497C364.743 71.8897 363.027 71.3097 360.896 71.3097C358.766 71.3097 356.86 71.9015 355.179 73.0852C353.498 74.2689 352.101 75.938 350.989 78.0923C349.876 80.2467 349.071 82.7917 348.574 85.7273C348.1 88.6629 348.053 91.2197 348.432 93.3977C348.834 95.5758 349.675 97.2685 350.953 98.4759C352.255 99.6596 353.983 100.251 356.138 100.251ZM412.572 114.03C406.82 114.03 402.073 112.846 398.332 110.479C394.616 108.111 392 104.809 390.484 100.571C388.969 96.3333 388.673 91.4091 389.597 85.7983C390.52 80.2112 392.426 75.3106 395.314 71.0966C398.202 66.8826 401.895 63.6037 406.393 61.2599C410.892 58.9162 415.993 57.7443 421.699 57.7443C427.428 57.7443 432.151 58.928 435.868 61.2955C439.608 63.6629 442.236 66.9654 443.751 71.2031C445.29 75.4408 445.598 80.3769 444.675 86.0114C443.751 91.5985 441.834 96.4991 438.922 100.713C436.01 104.903 432.317 108.17 427.842 110.514C423.368 112.858 418.278 114.03 412.572 114.03ZM414.526 100.926C416.656 100.926 418.562 100.287 420.243 99.0085C421.947 97.7301 423.38 95.9427 424.54 93.6463C425.7 91.3499 426.528 88.6866 427.026 85.6562C427.523 82.6733 427.57 80.0573 427.168 77.8082C426.789 75.5355 425.984 73.7718 424.753 72.517C423.522 71.2386 421.853 70.5994 419.746 70.5994C417.615 70.5994 415.697 71.2505 413.993 72.5526C412.288 73.831 410.856 75.6184 409.696 77.9148C408.56 80.1875 407.743 82.8509 407.246 85.9048C406.749 88.8878 406.689 91.5038 407.068 93.7528C407.447 96.0019 408.264 97.7656 409.518 99.044C410.773 100.299 412.442 100.926 414.526 100.926ZM469.415 114.03C463.71 114.03 458.975 112.905 455.211 110.656C451.47 108.384 448.843 105.152 447.327 100.962C445.812 96.7476 445.54 91.7405 446.511 85.9403C447.458 80.3059 449.387 75.3816 452.299 71.1676C455.235 66.9299 458.928 63.6392 463.379 61.2955C467.829 58.928 472.789 57.7443 478.258 57.7443C482.14 57.7443 485.585 58.348 488.592 59.5554C491.598 60.7628 494.084 62.562 496.049 64.9531C498.014 67.3205 499.352 70.2325 500.062 73.6889C500.772 77.1454 500.748 81.1108 499.991 85.5852L499.316 89.9176H451.944L453.542 79.8324H484.792C485.076 77.9858 484.922 76.3404 484.33 74.8963C483.738 73.4522 482.78 72.3277 481.454 71.5227C480.152 70.6941 478.554 70.2798 476.66 70.2798C474.742 70.2798 472.943 70.7296 471.262 71.6293C469.605 72.5052 468.196 73.6889 467.036 75.1804C465.876 76.6719 465.119 78.3527 464.763 80.223L462.881 90.5568C462.503 92.8532 462.609 94.8182 463.201 96.4517C463.793 98.0852 464.811 99.34 466.255 100.216C467.699 101.068 469.558 101.494 471.83 101.494C473.345 101.494 474.766 101.293 476.092 100.891C477.417 100.464 478.601 99.8371 479.643 99.0085C480.708 98.1562 481.572 97.1264 482.235 95.919L498.073 96.3807C496.795 99.9555 494.818 103.069 492.143 105.72C489.468 108.348 486.201 110.396 482.342 111.864C478.506 113.308 474.198 114.03 469.415 114.03ZM522.397 58.4545L528.363 76.4233L540.685 58.4545H558.192L538.412 85.7273L549.669 113H532.304L525.273 94.8892L512.525 113H494.911L515.294 85.7273L504.783 58.4545H522.397Z" fill="white"/>
<path fill-rule="evenodd" clip-rule="evenodd" d="M75 120C97.0914 120 115 102.091 115 80C115 57.9086 97.0914 40 75 40C52.9086 40 35 57.9086 35 80C35 102.091 52.9086 120 75 120ZM75 100C86.0457 100 95 91.0457 95 80C95 68.9543 86.0457 60 75 60C63.9543 60 55 68.9543 55 80C55 91.0457 63.9543 100 75 100Z" fill="white"/>
<path fill-rule="evenodd" clip-rule="evenodd" d="M12.0863 130C7.06663 123.738 2.96921 116.705 0 109.107L14.6538 83.7259C15.8375 103.046 26.1644 119.895 41.3621 130H12.0863ZM149.08 109.107C146.111 116.705 142.013 123.738 136.994 130H107.718C122.916 119.895 133.242 103.046 134.426 83.7259L149.08 109.107ZM86.6092 0.904441C82.6729 0.308806 78.6425 0 74.54 0C70.4375 0 66.4071 0.308806 62.4708 0.904441L47.8338 26.2564C55.8767 22.2521 64.9454 20 74.54 20C84.1347 20 93.2033 22.2521 101.246 26.2564L86.6092 0.904441Z" fill="white"/>
</svg>
