<svg width="342" height="121" viewBox="0 0 342 121" fill="none" xmlns="http://www.w3.org/2000/svg">
<path d="M0.958807 97L13.0327 24.2727H30.6108L25.5327 55.0256H26.4915L55.6108 24.2727H76.3139L45.2415 56.7301L64.7017 97H43.679L30.4688 68.4134L21.804 77.3977L18.5369 97H0.958807ZM87.5959 98.0298C81.843 98.0298 77.0964 96.8461 73.3558 94.4787C69.639 92.1113 67.023 88.8087 65.5078 84.571C63.9927 80.3333 63.6967 75.4091 64.62 69.7983C65.5433 64.2112 67.4491 59.3106 70.3374 55.0966C73.2256 50.8826 76.9188 47.6037 81.4169 45.2599C85.915 42.9162 91.0168 41.7443 96.7223 41.7443C102.451 41.7443 107.174 42.928 110.891 45.2955C114.632 47.6629 117.26 50.9654 118.775 55.2031C120.314 59.4408 120.621 64.3769 119.698 70.0114C118.775 75.5985 116.857 80.4991 113.945 84.7131C111.033 88.9034 107.34 92.1705 102.866 94.5142C98.3913 96.858 93.3014 98.0298 87.5959 98.0298ZM89.549 84.9261C91.6797 84.9261 93.5855 84.2869 95.2663 83.0085C96.9709 81.7301 98.4032 79.9427 99.5632 77.6463C100.723 75.3499 101.552 72.6866 102.049 69.6562C102.546 66.6733 102.594 64.0573 102.191 61.8082C101.812 59.5355 101.007 57.7718 99.7763 56.517C98.5452 55.2386 96.8762 54.5994 94.7692 54.5994C92.6385 54.5994 90.7209 55.2505 89.0163 56.5526C87.3118 57.831 85.8795 59.6184 84.7195 61.9148C83.5831 64.1875 82.7663 66.8509 82.2692 69.9048C81.772 72.8878 81.7128 75.5038 82.0916 77.7528C82.4704 80.0019 83.2872 81.7656 84.5419 83.044C85.7966 84.2988 87.4657 84.9261 89.549 84.9261ZM138.935 97.7812C134.91 97.7812 131.418 96.7396 128.459 94.6562C125.5 92.5729 123.381 89.4479 122.102 85.2812C120.848 81.1146 120.729 75.9418 121.747 69.7628C122.813 63.3471 124.706 58.0677 127.429 53.9247C130.152 49.7817 133.324 46.7159 136.946 44.7273C140.592 42.7386 144.309 41.7443 148.097 41.7443C150.961 41.7443 153.329 42.2415 155.199 43.2358C157.093 44.2064 158.572 45.4612 159.638 47C160.703 48.5388 161.437 50.1368 161.839 51.794H162.23L166.811 24.2727H184.176L172.102 97H154.915L156.371 88.1577H155.838C154.82 89.8385 153.518 91.4129 151.932 92.8807C150.346 94.3485 148.464 95.5322 146.286 96.4318C144.131 97.3314 141.681 97.7812 138.935 97.7812ZM147.138 84.2514C149.245 84.2514 151.151 83.6596 152.855 82.4759C154.56 81.2685 155.992 79.5758 157.152 77.3977C158.336 75.2197 159.164 72.6629 159.638 69.7273C160.135 66.7443 160.159 64.1757 159.709 62.0213C159.259 59.867 158.371 58.2098 157.045 57.0497C155.743 55.8897 154.027 55.3097 151.896 55.3097C149.766 55.3097 147.86 55.9015 146.179 57.0852C144.498 58.2689 143.101 59.938 141.989 62.0923C140.876 64.2467 140.071 66.7917 139.574 69.7273C139.1 72.6629 139.053 75.2197 139.432 77.3977C139.834 79.5758 140.675 81.2685 141.953 82.4759C143.255 83.6596 144.983 84.2514 147.138 84.2514ZM203.572 98.0298C197.82 98.0298 193.073 96.8461 189.332 94.4787C185.616 92.1113 183 88.8087 181.484 84.571C179.969 80.3333 179.673 75.4091 180.597 69.7983C181.52 64.2112 183.426 59.3106 186.314 55.0966C189.202 50.8826 192.895 47.6037 197.393 45.2599C201.892 42.9162 206.993 41.7443 212.699 41.7443C218.428 41.7443 223.151 42.928 226.868 45.2955C230.608 47.6629 233.236 50.9654 234.751 55.2031C236.29 59.4408 236.598 64.3769 235.675 70.0114C234.751 75.5985 232.834 80.4991 229.922 84.7131C227.01 88.9034 223.317 92.1705 218.842 94.5142C214.368 96.858 209.278 98.0298 203.572 98.0298ZM205.526 84.9261C207.656 84.9261 209.562 84.2869 211.243 83.0085C212.947 81.7301 214.38 79.9427 215.54 77.6463C216.7 75.3499 217.528 72.6866 218.026 69.6562C218.523 66.6733 218.57 64.0573 218.168 61.8082C217.789 59.5355 216.984 57.7718 215.753 56.517C214.522 55.2386 212.853 54.5994 210.746 54.5994C208.615 54.5994 206.697 55.2505 204.993 56.5526C203.288 57.831 201.856 59.6184 200.696 61.9148C199.56 64.1875 198.743 66.8509 198.246 69.9048C197.749 72.8878 197.689 75.5038 198.068 77.7528C198.447 80.0019 199.264 81.7656 200.518 83.044C201.773 84.2988 203.442 84.9261 205.526 84.9261ZM239.215 97L251.289 24.2727H293.477L292.482 30.2386H256.935L252.39 57.6179H285.7L284.705 63.5838H251.396L246.85 91.0341H283.107L282.113 97H239.215ZM305.202 42.4545L315.43 65.7145L333.398 42.4545H340.785L318.626 69.8338L331.623 97H324.343L314.045 74.5213L296.254 97H288.796L310.742 69.6918L297.958 42.4545H305.202Z" fill="white"/>
</svg>
