<svg width="612" height="130" viewBox="0 0 612 130" fill="none" xmlns="http://www.w3.org/2000/svg">
<path d="M267.812 100H251.699L229.184 78.2578C227.923 77.112 227.336 75.6797 227.422 73.9609C227.479 73.1589 227.68 72.4141 228.023 71.7266C228.396 71.0104 228.897 70.4089 229.527 69.9219L249.938 53.4648H267.812L241.516 74.6484L267.812 100ZM224.586 100H213.414V33.9141H224.586V100ZM323.07 84.3164C323.07 86.2357 322.827 87.9688 322.34 89.5156C321.853 91.0339 321.208 92.3802 320.406 93.5547C319.604 94.7005 318.673 95.6888 317.613 96.5195C316.553 97.3216 315.436 97.9805 314.262 98.4961C313.116 99.0117 311.941 99.3984 310.738 99.6562C309.564 99.8854 308.447 100 307.387 100H287.234C285.688 100 283.997 99.7279 282.164 99.1836C280.331 98.6393 278.626 97.7513 277.051 96.5195C275.504 95.2591 274.201 93.6406 273.141 91.6641C272.109 89.6589 271.594 87.2096 271.594 84.3164V69.1914C271.594 66.3268 272.109 63.9062 273.141 61.9297C274.201 59.9245 275.504 58.306 277.051 57.0742C278.626 55.8138 280.331 54.9115 282.164 54.3672C283.997 53.8229 285.688 53.5508 287.234 53.5508H307.387C310.251 53.5508 312.686 54.0664 314.691 55.0977C316.697 56.1289 318.315 57.4323 319.547 59.0078C320.779 60.5547 321.667 62.2448 322.211 64.0781C322.784 65.9115 323.07 67.6159 323.07 69.1914V84.3164ZM311.898 69.2773C311.898 67.7305 311.512 66.5846 310.738 65.8398C309.965 65.0951 308.848 64.7227 307.387 64.7227H287.32C285.831 64.7227 284.699 65.1094 283.926 65.8828C283.152 66.6276 282.766 67.7305 282.766 69.1914V84.3164C282.766 85.7773 283.152 86.8945 283.926 87.668C284.699 88.4414 285.831 88.8281 287.32 88.8281H307.387C308.905 88.8281 310.036 88.4414 310.781 87.668C311.526 86.8945 311.898 85.7773 311.898 84.3164V69.2773ZM383.57 84.3164C383.57 86.2357 383.327 87.9688 382.84 89.5156C382.353 91.0339 381.708 92.3802 380.906 93.5547C380.104 94.7005 379.173 95.6888 378.113 96.5195C377.053 97.3216 375.936 97.9805 374.762 98.4961C373.616 99.0117 372.441 99.3984 371.238 99.6562C370.064 99.8854 368.947 100 367.887 100H347.734C345.815 100 344.096 99.7565 342.578 99.2695C341.06 98.7826 339.714 98.138 338.539 97.3359C337.393 96.5052 336.405 95.5599 335.574 94.5C334.772 93.4401 334.113 92.3372 333.598 91.1914C333.082 90.0169 332.695 88.8424 332.438 87.668C332.208 86.4648 332.094 85.3477 332.094 84.3164V69.1914C332.094 66.3268 332.609 63.9062 333.641 61.9297C334.701 59.9245 336.004 58.306 337.551 57.0742C339.126 55.8138 340.831 54.9115 342.664 54.3672C344.497 53.8229 346.188 53.5508 347.734 53.5508H367.887V64.7227H347.82C346.331 64.7227 345.199 65.1094 344.426 65.8828C343.652 66.6276 343.266 67.7305 343.266 69.1914V84.2305C343.266 85.7487 343.638 86.8945 344.383 87.668C345.156 88.4414 346.273 88.8281 347.734 88.8281H367.887C369.405 88.8281 370.536 88.4414 371.281 87.668C372.026 86.8945 372.398 85.7773 372.398 84.3164V33.9141H383.57V84.3164ZM444.758 84.3164C444.758 86.2357 444.514 87.9688 444.027 89.5156C443.54 91.0339 442.896 92.3802 442.094 93.5547C441.292 94.7005 440.361 95.6888 439.301 96.5195C438.241 97.3216 437.124 97.9805 435.949 98.4961C434.803 99.0117 433.629 99.3984 432.426 99.6562C431.251 99.8854 430.134 100 429.074 100H408.922C407.375 100 405.685 99.7279 403.852 99.1836C402.018 98.6393 400.314 97.7513 398.738 96.5195C397.191 95.2591 395.888 93.6406 394.828 91.6641C393.797 89.6589 393.281 87.2096 393.281 84.3164V69.1914C393.281 66.3268 393.797 63.9062 394.828 61.9297C395.888 59.9245 397.191 58.306 398.738 57.0742C400.314 55.8138 402.018 54.9115 403.852 54.3672C405.685 53.8229 407.375 53.5508 408.922 53.5508H429.074C431.939 53.5508 434.374 54.0664 436.379 55.0977C438.384 56.1289 440.003 57.4323 441.234 59.0078C442.466 60.5547 443.354 62.2448 443.898 64.0781C444.471 65.9115 444.758 67.6159 444.758 69.1914V84.3164ZM433.586 69.2773C433.586 67.7305 433.199 66.5846 432.426 65.8398C431.652 65.0951 430.535 64.7227 429.074 64.7227H409.008C407.518 64.7227 406.387 65.1094 405.613 65.8828C404.84 66.6276 404.453 67.7305 404.453 69.1914V84.3164C404.453 85.7773 404.84 86.8945 405.613 87.668C406.387 88.4414 407.518 88.8281 409.008 88.8281H429.074C430.592 88.8281 431.724 88.4414 432.469 87.668C433.214 86.8945 433.586 85.7773 433.586 84.3164V69.2773ZM504.27 68.9336C504.27 70.4805 503.997 72.1562 503.453 73.9609C502.909 75.737 502.021 77.3984 500.789 78.9453C499.586 80.4635 497.996 81.7383 496.02 82.7695C494.072 83.8008 491.694 84.3164 488.887 84.3164H468.734V73.7031H488.887C490.405 73.7031 491.579 73.2448 492.41 72.3281C493.241 71.3828 493.656 70.2227 493.656 68.8477C493.656 67.3867 493.184 66.2409 492.238 65.4102C491.322 64.5794 490.204 64.1641 488.887 64.1641H468.734C467.216 64.1641 466.042 64.6367 465.211 65.582C464.38 66.4987 463.965 67.6445 463.965 69.0195V84.6172C463.965 86.1068 464.423 87.2669 465.34 88.0977C466.285 88.9284 467.445 89.3438 468.82 89.3438H488.887V100H468.734C467.188 100 465.512 99.7279 463.707 99.1836C461.931 98.6393 460.27 97.7656 458.723 96.5625C457.204 95.3307 455.93 93.7409 454.898 91.793C453.867 89.8164 453.352 87.4245 453.352 84.6172V68.9336C453.352 67.3867 453.624 65.7253 454.168 63.9492C454.712 62.1445 455.586 60.4831 456.789 58.9648C458.021 57.418 459.611 56.1289 461.559 55.0977C463.535 54.0664 465.927 53.5508 468.734 53.5508H488.887C490.434 53.5508 492.095 53.8229 493.871 54.3672C495.676 54.9115 497.337 55.7995 498.855 57.0312C500.402 58.2344 501.691 59.8242 502.723 61.8008C503.754 63.7487 504.27 66.1263 504.27 68.9336ZM563.051 53.5508L542.984 75.4648L565.586 100H550.203L535.336 83.8008L520.469 100H505.043L527.602 75.3789L507.621 53.5508H522.918L535.25 67L547.668 53.5508H563.051Z" fill="white"/>
<path fill-rule="evenodd" clip-rule="evenodd" d="M75.54 0C79.6425 0 83.6729 0.308806 87.6092 0.904441L102.246 26.2564C94.2033 22.2521 85.1347 20 75.54 20C65.9454 20 56.8767 22.2521 48.8338 26.2564L63.4708 0.904441C67.4071 0.308806 71.4375 0 75.54 0ZM116 80C116 102.091 98.0914 120 76 120C53.9086 120 36 102.091 36 80C36 57.9086 53.9086 40 76 40C98.0914 40 116 57.9086 116 80ZM96 80C96 91.0457 87.0457 100 76 100C64.9543 100 56 91.0457 56 80C56 68.9543 64.9543 60 76 60C87.0457 60 96 68.9543 96 80ZM1 109.107C3.96921 116.705 8.06663 123.738 13.0863 130H42.3621C27.1644 119.895 16.8375 103.046 15.6538 83.7259L1 109.107ZM150.08 109.107C147.111 116.705 143.013 123.738 137.994 130H108.718C123.916 119.895 134.242 103.046 135.426 83.7259L150.08 109.107Z" fill="url(#paint0_linear_74_2)"/>
<defs>
<linearGradient id="paint0_linear_74_2" x1="47" y1="-40" x2="150" y2="169.5" gradientUnits="userSpaceOnUse">
<stop stop-color="#317DFF"/>
<stop offset="1" stop-color="white"/>
</linearGradient>
</defs>
</svg>
