<svg width="570" height="179" viewBox="0 0 570 179" fill="none" xmlns="http://www.w3.org/2000/svg">
<path d="M294.04 62.1916H269.56L244.7 83.9716H233.6V31.6816H216.58V144.832H233.6V100.812H245.33L277.77 144.832H298.52L259.71 92.3916L294.04 62.1916Z" fill="white"/>
<path d="M362.25 65.7715C355.98 62.1115 348.07 60.2915 338.52 60.2915C324.29 60.2915 313.72 64.2115 306.81 72.0515C299.89 79.8915 296.44 90.1115 296.44 102.721C296.44 111.201 297.93 118.741 300.92 125.361C303.9 131.981 308.51 137.202 314.73 141.012C320.95 144.822 328.83 146.732 338.39 146.732C352.62 146.732 363.19 142.682 370.1 134.572C377.01 126.472 380.47 115.852 380.47 102.712C380.47 94.4515 379 87.1415 376.07 80.7815C373.12 74.4315 368.51 69.4315 362.25 65.7715ZM356.65 122.422C352.72 127.402 346.67 129.891 338.52 129.891C332.95 129.891 328.37 128.731 324.79 126.391C321.21 124.061 318.57 120.882 316.88 116.852C315.19 112.822 314.34 108.221 314.34 103.021C314.34 95.2915 316.33 89.0415 320.31 84.2715C324.29 79.5015 330.36 77.1215 338.52 77.1215C343.99 77.1215 348.52 78.2315 352.1 80.4615C355.68 82.6815 358.32 85.7315 360.01 89.6015C361.7 93.4715 362.55 97.8915 362.55 102.872C362.54 110.932 360.58 117.442 356.65 122.422Z" fill="white"/>
<path d="M455.08 77.9316H454.05C451.76 72.9216 448.53 68.8616 444.33 65.7716C439.35 62.1116 432.94 60.2916 425.08 60.2916C416.92 60.2916 410.16 62.1516 404.78 65.8516C399.41 69.5616 395.45 74.5916 392.91 80.9516C390.37 87.3116 389.1 94.5616 389.1 102.722C389.1 111.302 390.37 118.882 392.91 125.442C395.45 132.012 399.4 137.202 404.78 141.012C410.15 144.822 416.92 146.732 425.08 146.732C432.94 146.732 439.36 144.822 444.33 141.012C448.69 137.672 452.01 133.272 454.31 127.822H455.38V144.822H472.1V31.6816H455.09V77.9316H455.08ZM444.7 126.322C441.17 128.702 436.66 129.902 431.19 129.902C425.72 129.902 421.17 128.712 417.53 126.322C413.9 123.942 411.24 120.762 409.55 116.792C407.86 112.822 407.01 108.242 407.01 103.042C407.01 98.0616 407.85 93.6116 409.55 89.6916C411.24 85.7716 413.9 82.7016 417.53 80.4716C421.16 78.2516 425.71 77.1316 431.19 77.1316C436.66 77.1316 441.16 78.2216 444.7 80.3916C448.23 82.5616 450.84 85.5816 452.54 89.4516C454.23 93.3216 455.08 97.7916 455.08 102.882C455.08 108.072 454.23 112.682 452.54 116.712C450.85 120.732 448.24 123.932 444.7 126.322Z" fill="white"/>
<path d="M550.89 65.7715C544.62 62.1115 536.71 60.2915 527.16 60.2915C512.93 60.2915 502.36 64.2115 495.45 72.0515C488.53 79.8915 485.08 90.1115 485.08 102.721C485.08 111.201 486.57 118.741 489.56 125.361C492.54 131.981 497.15 137.202 503.37 141.012C509.59 144.822 517.47 146.732 527.03 146.732C541.26 146.732 551.83 142.682 558.74 134.572C565.65 126.472 569.11 115.852 569.11 102.712C569.11 94.4515 567.64 87.1415 564.71 80.7815C561.76 74.4315 557.16 69.4315 550.89 65.7715ZM545.3 122.422C541.37 127.402 535.32 129.891 527.17 129.891C521.6 129.891 517.02 128.731 513.44 126.391C509.86 124.061 507.22 120.882 505.53 116.852C503.84 112.822 502.99 108.221 502.99 103.021C502.99 95.2915 504.98 89.0415 508.96 84.2715C512.94 79.5015 519.01 77.1215 527.17 77.1215C532.64 77.1215 537.17 78.2315 540.75 80.4615C544.33 82.6815 546.97 85.7315 548.66 89.6015C550.35 93.4715 551.2 97.8915 551.2 102.872C551.19 110.932 549.23 117.442 545.3 122.422Z" fill="white"/>
<path d="M124.3 153.722C116.69 153.722 109.09 151.732 102.23 147.772C93.88 142.952 87.47 135.722 83.69 126.872C78.18 113.952 79.04 99.5717 86.05 87.4117C89.61 81.2517 94.66 75.9917 100.65 72.1917C101.53 71.6317 102.45 71.0917 103.39 70.5917C110.89 65.7317 115.35 57.5317 115.35 48.6117C115.35 45.1817 114.69 41.8517 113.4 38.6917C111.36 33.7117 107.72 29.3716 103.15 26.4816C101.69 25.6416 100.16 24.8717 98.61 24.1817C92.52 21.4917 86.04 20.1317 79.34 20.1317C73.8 20.1317 68.38 21.0717 63.21 22.9217C58.58 24.5817 53.47 22.2116 51.75 17.5917C50.03 12.9816 52.34 7.84165 56.93 6.06165C82.26 -3.73835 110.25 -1.57835 133.74 11.9817C162.43 28.5416 179.49 59.4017 178.27 92.5417C178.21 95.7317 177.92 98.9417 177.4 102.092C176.11 109.892 173.44 117.352 169.46 124.242C164.88 132.182 158.83 138.942 151.49 144.342C149.47 145.922 147.3 147.322 145.04 148.522C138.51 151.992 131.4 153.722 124.3 153.722ZM129.49 30.5516C129.69 30.9916 129.88 31.4317 130.06 31.8717C132.25 37.2017 133.35 42.8417 133.35 48.6117C133.35 63.8417 125.65 77.8116 112.75 85.9716C112.55 86.1016 112.34 86.2216 112.12 86.3316C111.49 86.6616 110.87 87.0216 110.29 87.3916C106.69 89.6716 103.78 92.7017 101.64 96.4117C97.48 103.622 96.97 112.152 100.24 119.812C102.48 125.052 106.28 129.332 111.23 132.192C119.09 136.732 128.59 136.892 136.63 132.632C137.99 131.912 139.3 131.062 140.52 130.102C140.6 130.042 140.68 129.982 140.76 129.912C146.13 125.982 150.55 121.052 153.9 115.242C156.79 110.232 158.74 104.812 159.67 99.1517C160.05 96.8517 160.26 94.4917 160.3 92.1517C160.3 92.0817 160.3 92.0217 160.31 91.9517C161.23 67.3617 149.54 44.3116 129.49 30.5516Z" fill="#FD009C"/>
<path d="M38.92 160.682C36.94 160.682 34.95 160.032 33.28 158.692C12.13 141.662 0 116.332 0 89.2119C0 56.0819 18.2 25.8819 47.5 10.3719C50.29 8.82186 53.22 7.47186 56.2 6.35186C63.6 3.57186 71.4 2.15186 79.36 2.15186C88.53 2.15186 97.41 4.01185 105.75 7.66185C108.13 8.62185 110.43 9.80186 112.59 11.1519C125.59 19.2919 133.35 33.3019 133.35 48.6119C133.35 58.2519 130.3 67.4218 124.52 75.1118C116.09 86.3518 103.2 92.7919 89.17 92.7919C82.06 92.7919 74.97 91.0518 68.69 87.7518C67.76 87.2618 66.84 86.7419 65.94 86.1819C57.98 82.1219 48.65 82.3519 40.92 86.8119C37.95 88.5219 35.39 90.7619 33.3 93.4619C30 97.7219 28.07 103.042 27.84 108.442C27.84 110.122 27.94 111.832 28.12 113.522C28.84 120.132 30.9 126.432 34.25 132.232C37.02 137.022 40.55 141.262 44.73 144.812C48.49 147.992 48.98 153.602 45.85 157.402C44.08 159.562 41.51 160.682 38.92 160.682ZM79.35 20.1419C73.56 20.1419 67.9 21.1719 62.53 23.1919C60.34 24.0119 58.2 25.0019 56.16 26.1419C56.1 26.1719 56.05 26.2019 55.99 26.2319C34.21 37.7319 20.1 59.3819 18.21 83.6219C18.49 83.2319 18.78 82.8518 19.07 82.4718C22.6 77.9118 26.92 74.1418 31.92 71.2518C45.11 63.6318 61.06 63.3218 74.57 70.4118C74.78 70.5218 74.99 70.6419 75.19 70.7719C75.79 71.1519 76.41 71.5118 77.03 71.8318C80.8 73.8118 84.89 74.8119 89.16 74.8119C97.48 74.8119 105.12 70.9919 110.13 64.3219C113.55 59.7619 115.36 54.3319 115.36 48.6219C115.36 39.5419 110.75 31.2419 103.04 26.4119C101.74 25.5919 100.34 24.8919 98.91 24.3119C98.81 24.2719 98.72 24.2319 98.63 24.1919C92.54 21.5019 86.05 20.1419 79.35 20.1419Z" fill="#FD009C"/>
<path d="M89.1601 178.411C72.6901 178.411 56.2501 173.841 41.7201 164.721C38.9801 163.081 36.3501 161.221 33.8901 159.201C27.7801 154.181 22.6601 148.141 18.6801 141.251C14.1001 133.311 11.2601 124.691 10.2601 115.641C9.91006 113.101 9.77006 110.521 9.86006 107.971C10.4101 92.6415 18.6601 78.9215 31.9201 71.2615C40.2701 66.4415 49.7301 64.5015 59.2901 65.6615C73.2401 67.3515 85.2601 75.2815 92.2801 87.4415C95.8401 93.6015 97.8701 100.611 98.1601 107.701C98.2001 108.751 98.2101 109.811 98.1701 110.871C98.6301 119.791 103.5 127.761 111.23 132.221C114.2 133.931 117.42 135.031 120.8 135.491C126.14 136.211 131.71 135.231 136.5 132.721C137.96 131.871 139.39 130.941 140.76 129.941C146.13 126.011 150.55 121.081 153.9 115.271C156.67 110.471 158.57 105.301 159.55 99.9015C160.43 95.0615 165.04 91.8115 169.89 92.6415C174.74 93.4615 178.04 98.0315 177.28 102.891C173.1 129.721 157.24 152.891 133.75 166.451C119.9 174.431 104.52 178.411 89.1601 178.411ZM27.8301 108.601C27.7701 110.141 27.8601 111.701 28.0801 113.231C28.0901 113.331 28.1101 113.431 28.1201 113.531C28.8401 120.141 30.9001 126.441 34.2501 132.241C37.1401 137.251 40.8601 141.641 45.3001 145.291C47.1001 146.771 49.0401 148.131 51.0401 149.331C51.1001 149.361 51.1501 149.401 51.2101 149.431C72.0601 162.541 97.8601 163.941 119.8 153.451C119.32 153.401 118.85 153.341 118.37 153.281C112.66 152.511 107.23 150.651 102.23 147.761C89.0401 140.141 80.7901 126.491 80.1801 111.241C80.1701 111.001 80.1701 110.761 80.1801 110.511C80.2101 109.801 80.2101 109.091 80.1801 108.391C80.0101 104.131 78.8301 100.101 76.7001 96.3915C72.5401 89.1815 65.4101 84.4815 57.1301 83.4815C51.4701 82.8015 45.8701 83.9515 40.9201 86.8015C33.0501 91.3615 28.1601 99.5015 27.8301 108.601Z" fill="#FD009C"/>
</svg>
