<svg width="100" height="100" viewBox="0 0 100 100" fill="none" xmlns="http://www.w3.org/2000/svg">
<g clip-path="url(#clip0_35_350)">
<circle cx="50" cy="50" r="50" fill="url(#paint0_linear_35_350)"/>
<path fill-rule="evenodd" clip-rule="evenodd" d="M69.0977 38.6044L68.5512 38.8712C68.3701 38.9728 68.1786 39.0591 67.9798 39.1297C65.8677 40.0543 65.2004 41.1596 65.1863 41.1596C65.1294 41.3438 65.1578 41.2371 65.0691 41.4126C63.8941 43.6703 61.9599 45.4491 59.6173 46.4185C58.2584 46.9813 56.8207 47.2656 55.3515 47.2656C51.6279 47.2656 48.2387 45.4317 46.251 42.4924C45.8499 43.0917 45.406 43.6614 44.8807 44.1697C42.8222 46.1672 40.0826 47.2656 37.1722 47.2656C34.2582 47.2656 31.5216 46.1652 29.4633 44.1697C28.157 42.8986 27.2699 41.3472 26.7619 39.6719C21.9461 41.227 19 43.2638 19 45.5022C19 50.3718 32.8318 54.3186 49.8928 54.3186C66.954 54.3186 80.7855 50.3718 80.7855 45.5022C80.7853 42.7061 76.21 40.2195 69.0977 38.6044ZM49.8925 57.8453C46.1658 57.8453 41.6905 57.6147 37.2145 57.0636L49.8925 78.9339L62.5703 57.0636C58.095 57.6147 53.6192 57.8453 49.8925 57.8453ZM51.9939 82.5C62.4569 82.3003 71.4757 80.6161 76.5085 78.1746L66.1516 58.0777L51.9939 82.5ZM79.5431 76.1751C80.3383 75.3939 80.7853 74.5689 80.7853 73.7149V51.5672C77.9708 53.5853 73.754 54.9869 69.1297 55.9669L79.5431 76.1751ZM23.277 78.1746C28.3096 80.6161 37.3283 82.3003 47.7917 82.5L33.6337 58.0777L23.277 78.1746ZM19 51.5672V73.7149C19 74.5689 19.4472 75.3939 20.2425 76.1751L30.6558 55.9669C26.0313 54.9869 21.8143 53.5853 19 51.5672ZM42.3114 41.6745C43.5821 40.4418 44.2494 38.8663 44.3843 37.2561C44.3843 37.2561 44.3986 34.6611 47.4224 31.7287L61.5337 18.0204C62.957 16.6431 62.9537 14.4113 61.5337 13.034C60.1176 11.6562 57.8145 11.6545 56.3948 13.034L41.9103 27.1021C39.1381 29.7918 36.6536 29.6555 36.6536 29.6555L36.6431 29.6831C34.9644 29.8018 33.3175 30.453 32.0324 31.6995C29.1933 34.4551 29.1933 38.9216 32.0324 41.6748C34.8688 44.4281 39.4723 44.4281 42.3114 41.6745ZM85.2075 23.0744C84.4197 21.2872 82.2865 20.4484 80.4375 21.2132L63.4294 29.5092C59.8232 31.0006 57.5695 29.9745 57.5695 29.9745L57.5483 29.9966C55.9475 29.4974 54.1696 29.5043 52.4978 30.1982C48.8029 31.7238 47.0849 35.8688 48.661 39.452C50.23 43.0336 54.5035 44.7006 58.1943 43.1748C59.845 42.4914 61.0729 41.2705 61.8215 39.8275C61.8215 39.8275 62.8296 37.4221 66.7617 35.7979L83.2872 27.7033C85.1367 26.94 85.9955 24.8685 85.2075 23.0744Z" fill="white"/>
</g>
<defs>
<linearGradient id="paint0_linear_35_350" x1="64.5" y1="17" x2="-43" y2="153" gradientUnits="userSpaceOnUse">
<stop stop-color="#13A3E5"/>
<stop offset="1" stop-color="#1398D5" stop-opacity="0"/>
</linearGradient>
<clipPath id="clip0_35_350">
<rect width="100" height="100" fill="white"/>
</clipPath>
</defs>
</svg>
