<?xml version="1.0" encoding="UTF-8"?>
<svg width="18px" height="18px" viewBox="0 0 18 18" version="1.1" xmlns="http://www.w3.org/2000/svg" xmlns:xlink="http://www.w3.org/1999/xlink">
    <title>group 8</title>
    <g id="page-1" stroke="none" stroke-width="1" fill="none" fill-rule="evenodd">
        <g id="connect-wallet-Success" transform="translate(-1332.000000, -36.000000)">
            <g id="login" transform="translate(1070.000000, 26.000000)">
                <g id="group-2" transform="translate(262.000000, 10.000000)">
                    <rect id="rect" x="0" y="0" width="18" height="18"></rect>
                    <path d="M14.7507773,6.25351271 C14.5898528,6.0912631 14.3707954,6 14.1422748,6 C13.9137542,6 13.6946969,6.0912631 13.5337723,6.25351271 L9.60850252,10.1787825 C9.44757794,10.3410321 9.22852058,10.4322952 9,10.4322952 C8.77147942,10.4322952 8.55242206,10.3410321 8.39149748,10.1787825 L4.4662277,6.25351271 C4.30530312,6.0912631 4.08624576,6 3.85772518,6 C3.6292046,6 3.41014724,6.0912631 3.24922266,6.25351271 C2.91692578,6.58779268 2.91692578,7.12766733 3.24922266,7.4619473 L7.1830629,11.3957875 C8.1868951,12.3983713 9.8131049,12.3983713 10.8169371,11.3957875 L14.7507773,7.4619473 C15.0830742,7.12766733 15.0830742,6.58779268 14.7507773,6.25351271 Z" id="path" fill="#FFFFFF" fill-rule="nonzero"></path>
                </g>
            </g>
        </g>
    </g>
</svg>