<?xml version="1.0" encoding="UTF-8"?>
<svg width="24px" height="24px" viewBox="0 0 24 24" version="1.1" xmlns="http://www.w3.org/2000/svg" xmlns:xlink="http://www.w3.org/1999/xlink">
    <title>group 54</title>
    <g id="page-1" stroke="none" stroke-width="1" fill="none" fill-rule="evenodd">
        <g id="Disconnect" transform="translate(-625.000000, -628.000000)">
            <g id="group-51" transform="translate(540.000000, 458.000000)">
                <g id="group-54" transform="translate(85.000000, 170.000000)">
                    <rect id="rect" x="0" y="0" width="24" height="24"></rect>
                    <path d="M13.75,16.6666667 L7.91666667,16.6666667 C6.30663566,16.6647381 5.00192857,15.360031 5,13.75 L5,7.91666667 C5.00192857,6.30663566 6.30663566,5.00192857 7.91666667,5 L13.75,5 C15.360031,5.00192857 16.6647381,6.30663566 16.6666667,7.91666667 L16.6666667,13.75 C16.6647381,15.360031 15.360031,16.6647381 13.75,16.6666667 L13.75,16.6666667 Z M7.91666667,6.16666667 C6.95016835,6.16666667 6.16666667,6.95016835 6.16666667,7.91666667 L6.16666667,13.75 C6.16666667,14.7164983 6.95016835,15.5 7.91666667,15.5 L13.75,15.5 C14.7164983,15.5 15.5,14.7164983 15.5,13.75 L15.5,7.91666667 C15.5,6.95016835 14.7164983,6.16666667 13.75,6.16666667 L7.91666667,6.16666667 Z M19,16.0833333 L19,8.5 C19,8.1778339 18.7388328,7.91666667 18.4166667,7.91666667 C18.0945006,7.91666667 17.8333333,8.1778339 17.8333333,8.5 L17.8333333,16.0833333 C17.8333333,17.0498316 17.0498316,17.8333333 16.0833333,17.8333333 L8.5,17.8333333 C8.1778339,17.8333333 7.91666667,18.0945006 7.91666667,18.4166667 C7.91666667,18.7388328 8.1778339,19 8.5,19 L16.0833333,19 C17.6933643,18.9980714 18.9980714,17.6933643 19,16.0833333 Z" id="shape" fill="#FFFFFF" fill-rule="nonzero"></path>
                </g>
            </g>
        </g>
    </g>
</svg>