<?xml version="1.0" encoding="UTF-8"?>
<svg width="24px" height="24px" viewBox="0 0 24 24" version="1.1" xmlns="http://www.w3.org/2000/svg" xmlns:xlink="http://www.w3.org/1999/xlink">
    <title>group 55</title>
    <g id="page-1" stroke="none" stroke-width="1" fill="none" fill-rule="evenodd">
        <g id="Disconnect" transform="translate(-792.000000, -628.000000)">
            <g id="group-51" transform="translate(540.000000, 458.000000)">
                <g id="group-55" transform="translate(252.000000, 170.000000)">
                    <rect id="rect-7" x="0" y="0" width="24" height="24"></rect>
                    <path d="M9.08333333,5 C9.40549943,5 9.66666667,5.26116723 9.66666667,5.58333333 C9.66666667,5.90549943 9.40549943,6.16666666 9.08333333,6.16666667 L9.08333333,6.16666667 L7.91666667,6.16666667 C6.95016835,6.16666667 6.16666667,6.95016835 6.16666667,7.91666667 L6.16666667,7.91666667 L6.16666667,16.0833333 C6.16666667,17.0498316 6.95016835,17.8333333 7.91666667,17.8333333 L7.91666667,17.8333333 L9.08333333,17.8333333 C9.40549944,17.8333333 9.66666667,18.0945006 9.66666667,18.4166667 C9.66666667,18.7388328 9.40549944,19 9.08333333,19 L9.08333333,19 L7.91666667,19 C6.30663566,18.9980714 5.00192857,17.6933643 5,16.0833333 L5,16.0833333 L5,7.91666667 C5.00192857,6.30663566 6.30663566,5.00192857 7.91666667,5 L7.91666667,5 Z M15.2364392,8.09468916 C15.4614505,7.86967778 15.825279,7.86651621 16.0541667,8.08758333 L16.0541667,8.08758333 L18.3169167,10.3503333 C19.2254745,11.2614997 19.2254745,12.7385003 18.3145833,13.6496667 L18.3145833,13.6496667 L16.0518333,15.9124167 C15.9053732,16.064058 15.6884879,16.124874 15.4845374,16.07149 C15.2805869,16.018106 15.1213107,15.8588298 15.0679267,15.6548793 C15.0145427,15.4509288 15.0753587,15.2340434 15.227,15.0875833 L15.227,15.0875833 L17.48975,12.8248333 C17.5672302,12.7447644 17.632841,12.6540093 17.6845833,12.5553333 C17.6688333,12.5565 17.6554167,12.5646667 17.6390833,12.5646667 L17.6390833,12.5646667 L8.49358333,12.5833333 L8.39896364,12.5756985 C8.12179546,12.5304899 7.91025,12.2899495 7.91025,12 C7.91025,11.6778339 8.17141723,11.4166667 8.49358333,11.4166667 L8.49358333,11.4166667 L17.6425833,11.398 L17.6548333,11.4003333 L17.6548333,11.4003333 L17.6670833,11.4026667 C17.6180625,11.3201046 17.5593089,11.243725 17.4920833,11.1751667 L17.4920833,11.1751667 L15.2293333,8.91241667 C15.0082662,8.68352898 15.0114278,8.31970055 15.2364392,8.09468916 Z" id="shape" fill="#FFFFFF" fill-rule="nonzero"></path>
                </g>
            </g>
        </g>
    </g>
</svg>