<?xml version="1.0" encoding="UTF-8"?>
<svg width="60px" height="60px" viewBox="0 0 60 60" version="1.1" xmlns="http://www.w3.org/2000/svg" xmlns:xlink="http://www.w3.org/1999/xlink">
    <title>group 53</title>
    <g id="page-1" stroke="none" stroke-width="1" fill="none" fill-rule="evenodd">
        <g id="Disconnect" transform="translate(-690.000000, -482.000000)">
            <g id="group-51" transform="translate(540.000000, 458.000000)">
                <g id="group-53" transform="translate(150.000000, 24.000000)">
                    <circle id="elip" fill="#FD009C" cx="30" cy="30" r="30"></circle>
                    <path d="M29.6756757,15.4054054 C19.854973,15.4054054 12.1621622,19.5721622 12.1621622,24.8918919 L12.1621622,35.1081081 C12.1621622,40.4278378 19.854973,44.5945946 29.6756757,44.5945946 C39.4963784,44.5945946 47.1891892,40.4278378 47.1891892,35.1081081 L47.1891892,24.8918919 C47.1891892,19.5721622 39.4963784,15.4054054 29.6756757,15.4054054 Z M29.6756757,18.3243243 C38.2762703,18.3243243 44.2702703,21.7861622 44.2702703,24.8918919 C44.2702703,27.9976216 38.2762703,31.4594595 29.6756757,31.4594595 C21.0750811,31.4594595 15.0810811,27.9976216 15.0810811,24.8918919 C15.0810811,21.7861622 21.0750811,18.3243243 29.6756757,18.3243243 Z M22.3783784,33.5362703 L22.3783784,40.7474595 C21.2998378,40.4511892 20.3263784,40.0921622 19.4594595,39.6922703 L19.4594595,32.6343243 C20.3701622,32.9831351 21.3450811,33.2852432 22.3783784,33.5362703 L22.3783784,33.5362703 Z M25.2972973,34.0791892 C26.2415676,34.2061622 27.2135676,34.2966486 28.2162162,34.3404324 L28.2162162,41.6391892 C27.198973,41.591027 26.2240541,41.4947027 25.2972973,41.3560541 L25.2972973,34.0791892 L25.2972973,34.0791892 Z M31.1351351,34.3404324 C32.1377838,34.2981081 33.1097838,34.2076216 34.0540541,34.0791892 L34.0540541,41.3560541 C33.1272973,41.4947027 32.1523784,41.591027 31.1351351,41.6391892 L31.1351351,34.3404324 L31.1351351,34.3404324 Z M36.972973,33.5377297 C38.0062703,33.2867027 38.9811892,32.9845946 39.8918919,32.6357838 L39.8918919,39.6937297 C39.024973,40.0936216 38.0515135,40.4526486 36.972973,40.7489189 L36.972973,33.5377297 Z M15.0810811,35.1095676 L15.0810811,30.2028649 C15.5203784,30.5618919 16.0165946,30.8961081 16.5405405,31.2157297 L16.5405405,37.8212432 C15.605027,36.9499459 15.0810811,36.0144324 15.0810811,35.1081081 L15.0810811,35.1095676 Z M42.8108108,37.8227027 L42.8108108,31.2171892 C43.3347568,30.8961081 43.830973,30.5618919 44.2702703,30.2043243 L44.2702703,35.111027 C44.2702703,36.0173514 43.7463243,36.9514054 42.8108108,37.8241622 L42.8108108,37.8227027 Z" id="形状" fill="#FFFFFF" fill-rule="nonzero"></path>
                </g>
            </g>
        </g>
    </g>
</svg>