<svg width="60" height="60" viewBox="0 0 60 60" fill="none" xmlns="http://www.w3.org/2000/svg">
<rect width="60" height="60" fill="#FD009C"/>
<path d="M29.5135 15C19.6928 15 12 19.1668 12 24.4865V34.7027C12 40.0224 19.6928 44.1892 29.5135 44.1892C39.3342 44.1892 47.027 40.0224 47.027 34.7027V24.4865C47.027 19.1668 39.3342 15 29.5135 15ZM29.5135 17.9189C38.1141 17.9189 44.1081 21.3808 44.1081 24.4865C44.1081 27.5922 38.1141 31.0541 29.5135 31.0541C20.9129 31.0541 14.9189 27.5922 14.9189 24.4865C14.9189 21.3808 20.9129 17.9189 29.5135 17.9189ZM22.2162 33.1309V40.3421C21.1377 40.0458 20.1642 39.6868 19.2973 39.2869V32.2289C20.208 32.5777 21.1829 32.8798 22.2162 33.1309ZM25.1351 33.6738C26.0794 33.8008 27.0514 33.8912 28.0541 33.935V41.2338C27.0368 41.1856 26.0619 41.0893 25.1351 40.9506V33.6738ZM30.973 33.935C31.9756 33.8927 32.9476 33.8022 33.8919 33.6738V40.9506C32.9651 41.0893 31.9902 41.1856 30.973 41.2338V33.935ZM36.8108 33.1323C37.8441 32.8813 38.819 32.5792 39.7297 32.2304V39.2883C38.8628 39.6882 37.8894 40.0472 36.8108 40.3435V33.1323ZM14.9189 34.7042V29.7975C15.3582 30.1565 15.8544 30.4907 16.3784 30.8103V37.4158C15.4429 36.5445 14.9189 35.609 14.9189 34.7027V34.7042ZM42.6486 37.4173V30.8118C43.1726 30.4907 43.6688 30.1565 44.1081 29.7989V34.7056C44.1081 35.6119 43.5842 36.546 42.6486 37.4188V37.4173Z" fill="white"/>
</svg>
