<svg width="120" height="120" viewBox="0 0 120 120" fill="none" xmlns="http://www.w3.org/2000/svg">
<rect width="120" height="120" fill="#FD009C"/>
<path d="M75.7613 88.929C72.3475 88.929 68.9381 88.0367 65.8607 86.261C62.1148 84.0997 59.2393 80.8578 57.5436 76.8894C55.0717 71.0961 55.4575 64.648 58.6023 59.1955C60.1993 56.4333 62.4647 54.0747 65.1519 52.3708C65.5466 52.1197 65.9593 51.8776 66.381 51.6534C69.7456 49.4742 71.7463 45.7973 71.7463 41.7975C71.7463 40.2595 71.4503 38.7663 70.8716 37.3494C69.9564 35.1163 68.3235 33.1703 66.2734 31.8744C65.6184 31.4977 64.932 31.1525 64.2367 30.8431C61.5047 29.6369 58.5978 29.0271 55.5921 29.0271C53.1069 29.0271 50.6754 29.4486 48.3562 30.2781C46.2791 31.0224 43.9868 29.9597 43.2152 27.8881C42.4436 25.821 43.4798 23.5162 45.5389 22.7181C56.902 18.3237 69.4585 19.2923 79.9961 25.3726C92.8666 32.7981 100.52 46.6358 99.9724 61.4958C99.9455 62.9262 99.8154 64.3656 99.5822 65.778C99.0035 69.2756 97.8057 72.6206 96.0203 75.7101C93.9656 79.2704 91.2516 82.3016 87.9589 84.723C87.0527 85.4314 86.0792 86.0592 85.0654 86.5973C82.136 88.1532 78.9464 88.929 75.7613 88.929ZM78.0896 33.6994C78.1793 33.8967 78.2645 34.094 78.3453 34.2913C79.3277 36.6813 79.8212 39.2102 79.8212 41.7975C79.8212 48.6267 76.3669 54.8908 70.58 58.5498C70.4902 58.6081 70.396 58.6619 70.2973 58.7112C70.0147 58.8592 69.7366 59.0206 69.4764 59.1865C67.8614 60.2089 66.556 61.5675 65.596 63.2311C63.7298 66.4641 63.501 70.2889 64.9679 73.7237C65.9728 76.0733 67.6775 77.9925 69.8981 79.2749C73.4241 81.3106 77.6858 81.3824 81.2926 79.4722C81.9027 79.1493 82.4904 78.7682 83.0377 78.3377C83.0736 78.3108 83.1095 78.2839 83.1453 78.2525C85.5543 76.4903 87.5372 74.2797 89.04 71.6745C90.3365 69.428 91.2112 66.9977 91.6284 64.4597C91.7989 63.4284 91.8931 62.3702 91.911 61.3209C91.911 61.2895 91.911 61.2626 91.9155 61.2312C92.3282 50.205 87.0841 39.8694 78.0896 33.6994Z" fill="white"/>
<path d="M37.4596 92.0499C36.5714 92.0499 35.6787 91.7584 34.9295 91.1576C25.4416 83.5213 20 72.1633 20 60.0027C20 45.1471 28.1646 31.6054 41.3087 24.6507C42.5603 23.9557 43.8747 23.3503 45.2115 22.8481C48.5312 21.6016 52.0303 20.9648 55.6012 20.9648C59.7148 20.9648 63.6984 21.7989 67.4398 23.4355C68.5075 23.866 69.5393 24.3951 70.5082 25.0005C76.3401 28.6504 79.8212 34.9325 79.8212 41.7976C79.8212 46.1202 78.453 50.232 75.8601 53.6802C72.0783 58.7202 66.2959 61.6079 60.0019 61.6079C56.8124 61.6079 53.6318 60.8277 50.8146 59.348C50.3974 59.1283 49.9846 58.8951 49.5809 58.644C46.01 56.8235 41.8245 56.9266 38.3568 58.9265C37.0245 59.6933 35.8761 60.6977 34.9385 61.9084C33.4581 63.8185 32.5923 66.204 32.4891 68.6254C32.4891 69.3787 32.534 70.1455 32.6147 70.9033C32.9377 73.8672 33.8618 76.6921 35.3647 79.2929C36.6073 81.4407 38.1909 83.3419 40.066 84.9338C41.7528 86.3597 41.9726 88.8752 40.5685 90.5791C39.7744 91.5477 38.6215 92.0499 37.4596 92.0499ZM55.5967 29.0316C52.9993 29.0316 50.4602 29.4934 48.0512 30.3992C47.0687 30.7669 46.1087 31.2108 45.1936 31.722C45.1666 31.7354 45.1442 31.7489 45.1173 31.7623C35.3467 36.919 29.0169 46.6268 28.1691 57.4961C28.2947 57.3212 28.4248 57.1508 28.5549 56.9804C30.1384 54.9357 32.0764 53.2452 34.3194 51.9494C40.2365 48.5325 47.3917 48.3935 53.4523 51.5727C53.5466 51.622 53.6408 51.6758 53.7305 51.7341C53.9996 51.9045 54.2778 52.0659 54.5559 52.2094C56.2471 53.0973 58.0819 53.5457 59.9975 53.5457C63.7298 53.5457 67.1572 51.8328 69.4047 48.8419C70.9389 46.7972 71.7509 44.3624 71.7509 41.8021C71.7509 37.7306 69.6828 34.0088 66.2241 31.8431C65.6409 31.4754 65.0128 31.1615 64.3713 30.9014C64.3265 30.8835 64.2861 30.8655 64.2457 30.8476C61.5137 29.6414 58.6023 29.0316 55.5967 29.0316Z" fill="white"/>
<path d="M59.9973 99.9998C52.6088 99.9998 45.2338 97.9506 38.7155 93.8612C37.4864 93.1258 36.3065 92.2918 35.203 91.386C32.462 89.135 30.1652 86.4267 28.3797 83.3372C26.3251 79.7769 25.0511 75.9116 24.6025 71.8536C24.4455 70.7147 24.3827 69.5578 24.423 68.4144C24.6698 61.5404 28.3708 55.3883 34.3192 51.9536C38.0651 49.7923 42.3089 48.9224 46.5975 49.4425C52.8555 50.2003 58.2477 53.7561 61.3969 59.2087C62.994 61.9709 63.9046 65.1142 64.0347 68.2933C64.0527 68.7641 64.0571 69.2394 64.0392 69.7147C64.2456 73.7145 66.4303 77.2882 69.898 79.2881C71.2303 80.0549 72.6748 80.5481 74.1911 80.7544C76.5866 81.0772 79.0854 80.6378 81.2342 79.5123C81.8891 79.1312 82.5306 78.7142 83.1452 78.2658C85.5542 76.5035 87.537 74.2929 89.0399 71.6877C90.2825 69.5354 91.1348 67.2172 91.5745 64.7958C91.9692 62.6255 94.0373 61.1682 96.213 61.5404C98.3887 61.9081 99.8691 63.9573 99.5282 66.1365C97.653 78.1671 90.5382 88.5566 80.0005 94.6369C73.7873 98.2151 66.8878 99.9998 59.9973 99.9998ZM32.4845 68.6969C32.4575 69.3874 32.4979 70.0869 32.5966 70.773C32.6011 70.8178 32.6101 70.8627 32.6145 70.9075C32.9375 73.8714 33.8617 76.6964 35.3645 79.2971C36.6609 81.5436 38.3298 83.5121 40.3215 85.1487C41.129 85.8124 41.9993 86.4222 42.8965 86.9603C42.9234 86.9737 42.9459 86.9916 42.9728 87.0051C52.3262 92.8836 63.9001 93.5114 73.7425 88.8077C73.5272 88.7853 73.3163 88.7584 73.101 88.7314C70.5395 88.3862 68.1035 87.5521 65.8605 86.2563C59.9435 82.8395 56.2425 76.7188 55.9688 69.8807C55.9643 69.773 55.9643 69.6654 55.9688 69.5533C55.9823 69.235 55.9823 68.9166 55.9688 68.6027C55.8926 66.6925 55.3632 64.8855 54.4077 63.2219C52.5415 59.9889 49.343 57.8814 45.6285 57.433C43.0894 57.1281 40.5773 57.6438 38.3567 58.9217C34.8262 60.9664 32.6325 64.6164 32.4845 68.6969Z" fill="white"/>
</svg>
