<?xml version="1.0" encoding="UTF-8"?>
<svg width="260px" height="126px" viewBox="0 0 260 126" version="1.1" xmlns="http://www.w3.org/2000/svg" xmlns:xlink="http://www.w3.org/1999/xlink">
    <title>group 16</title>
    <defs>
        <rect id="path-1" x="0" y="0" width="260" height="126"></rect>
    </defs>
    <g id="page-1" stroke="none" stroke-width="1" fill="none" fill-rule="evenodd">
        <g id="vote" transform="translate(-1072.000000, -1590.000000)">
            <g id="group-16" transform="translate(1072.000000, 1590.000000)">
                <mask id="mask-2" fill="white">
                    <use xlink:href="#path-1"></use>
                </mask>
                <g id="mask"></g>
                <g opacity="0.8" mask="url(#mask-2)" stroke="#FD009C">
                    <g transform="translate(0.000000, -67.000000)">
                        <path d="M149.998575,95.3712764 C139.463891,89.2925732 126.904145,88.3231091 115.543425,92.7193466 C115.514314,92.7302599 115.4943,92.7466299 115.467008,92.7575432 C115.381493,92.7884642 115.294159,92.8102907 115.210464,92.8430306 C113.873159,93.3432231 112.557688,93.9507297 111.307718,94.6455426 C98.162106,101.602766 90,115.144341 90,129.99915 C90,142.162013 95.4420105,153.517292 104.928685,161.156596 C104.954157,161.174785 104.981449,161.189336 105.006922,161.207525 C105.074242,161.26391 105.134284,161.327571 105.203423,161.383957 C106.307837,162.28976 107.488668,163.122808 108.716804,163.861274 C115.234117,167.948301 122.612035,170 129.99723,170 C136.889352,170 143.786932,168.212039 149.998575,164.627023 C160.533259,158.54832 167.650994,148.158866 169.52322,136.126963 C169.526859,136.097861 169.52322,136.068759 169.526859,136.041475 C169.543234,135.95235 169.568707,135.866863 169.583263,135.775919 C169.817973,134.368104 169.947155,132.92755 169.972627,131.496089 C170.518466,116.639462 162.867629,102.79959 149.998575,95.3712764" id="path" stroke-width="1" fill="none" opacity="0.5"></path>
                        <path d="M154.998219,86.7140955 C141.829863,79.1157165 126.130182,77.9038864 111.929282,83.3991833 C111.892892,83.4128249 111.867875,83.4332873 111.83376,83.446929 C111.726867,83.4855802 111.617699,83.5128634 111.51308,83.5537883 C109.841449,84.1790289 108.19711,84.9384121 106.634648,85.8069282 C90.2026325,94.5034572 80,111.430427 80,129.998937 C80,145.202516 86.8025131,159.396615 98.6608559,168.945745 C98.6926965,168.968481 98.7268114,168.98667 98.758652,169.009406 C98.8428021,169.079888 98.9178549,169.159464 99.0042793,169.229946 C100.384796,170.3622 101.860834,171.40351 103.396005,172.326592 C111.542646,177.435377 120.765043,180 129.996538,180 C138.61169,180 147.233665,177.765049 154.998219,173.283779 C168.166574,165.6854 177.063743,152.698583 179.404025,137.658703 C179.408574,137.622326 179.404025,137.585948 179.408574,137.551844 C179.429043,137.440438 179.460884,137.333578 179.479078,137.219898 C179.772466,135.46013 179.933944,133.659437 179.965784,131.870112 C180.648082,113.299328 171.084536,95.9994875 154.998219,86.7140955" id="path" stroke-width="0.9" fill="none" opacity="0.45"></path>
                        <path d="M159.997862,78.0569146 C144.195836,68.9388598 125.356218,67.4846637 108.315138,74.07902 C108.271471,74.0953899 108.24145,74.1199448 108.200512,74.1363147 C108.07224,74.1826962 107.941239,74.2154361 107.815696,74.2645459 C105.809739,75.0148347 103.836533,75.9260945 101.961577,76.9683138 C82.243159,87.4041486 70,107.716512 70,129.998725 C70,148.243019 78.1630157,165.275939 92.3930271,176.734894 C92.4312358,176.762178 92.4721737,176.784004 92.5103824,176.811287 C92.6113625,176.895865 92.7014259,176.991357 92.8051352,177.075935 C94.4617552,178.43464 96.2330014,179.684211 98.0752065,180.79191 C107.851175,186.922452 118.918052,190 129.995846,190 C140.334028,190 150.680398,187.318059 159.997862,181.940534 C175.799889,172.82248 186.476491,157.2383 189.28483,139.190444 C189.290289,139.146791 189.28483,139.103138 189.290289,139.062213 C189.314852,138.928525 189.35306,138.800294 189.374894,138.663878 C189.72696,136.552156 189.920732,134.391324 189.958941,132.244134 C190.777699,109.959193 179.301443,89.199385 159.997862,78.0569146" id="path" stroke-width="0.8" fill="none" opacity="0.4"></path>
                        <path d="M164.997506,69.3997337 C146.561809,58.7620031 124.582254,57.065441 104.700994,64.7588566 C104.650049,64.7779549 104.615025,64.8066023 104.567264,64.8257005 C104.417613,64.8798123 104.264778,64.9180088 104.118312,64.9753036 C101.778029,65.8506405 99.4759546,66.9137769 97.2885066,68.1296995 C74.2836855,80.3048401 60,104.002597 60,129.998512 C60,151.283522 69.5235183,171.155262 86.1251982,184.524044 C86.1697751,184.555874 86.2175359,184.581338 86.2621128,184.613169 C86.3799229,184.711843 86.4849968,184.82325 86.605991,184.921924 C88.5387144,186.507079 90.6051683,187.964913 92.7544076,189.257229 C104.159704,196.409527 117.071061,200 129.995153,200 C142.056366,200 154.127131,196.871068 164.997506,190.59729 C183.433204,179.959559 195.88924,161.778016 199.165636,140.722185 C199.172004,140.671256 199.165636,140.620327 199.172004,140.572582 C199.20066,140.416613 199.245237,140.26701 199.270709,140.107857 C199.681453,137.644182 199.907521,135.123212 199.952098,132.618157 C200.907315,106.619059 187.51835,82.3992825 164.997506,69.3997337" id="path" stroke-width="0.7" fill="none" opacity="0.35"></path>
                        <path d="M169.99715,60.7425529 C148.927781,48.5851464 123.808291,46.6462183 101.086851,55.4386933 C101.028628,55.4605199 100.9886,55.4932597 100.934016,55.5150863 C100.762986,55.5769283 100.588318,55.6205815 100.420928,55.6860612 C97.7463186,56.6864463 95.1153767,57.9014594 92.6154361,59.2910851 C66.324212,73.2055315 50,100.288683 50,129.998299 C50,154.324026 60.884021,177.034585 79.8573694,192.313193 C79.9083144,192.34957 79.9628982,192.378672 80.0138431,192.41505 C80.1484833,192.527821 80.2685678,192.655142 80.4068469,192.767913 C82.6156736,194.579519 84.9773352,196.245615 87.4336087,197.722547 C100.468234,205.896602 115.224069,210 129.994461,210 C143.778704,210 157.573864,206.424078 169.99715,199.254046 C191.066518,187.096639 205.301988,166.317733 209.046441,142.253925 C209.053718,142.195721 209.046441,142.137517 209.053718,142.082951 C209.086469,141.9047 209.137414,141.733725 209.166525,141.551837 C209.635946,138.736208 209.89431,135.855099 209.945255,132.992179 C211.036932,103.278925 195.735258,75.5991801 169.99715,60.7425529" id="path" stroke-width="0.6" fill="none" opacity="0.3"></path>
                        <path d="M174.996794,52.085372 C151.293754,38.4082897 123.034327,36.2269956 97.472707,46.1185299 C97.4072063,46.1430849 97.3621746,46.1799172 97.3007678,46.2044721 C97.1083597,46.2740444 96.9118578,46.3231542 96.7235435,46.3968189 C93.7146084,47.522252 90.7547988,48.8891418 87.9423656,50.4524708 C58.3647385,66.1062229 40,96.574768 40,129.998087 C40,157.364529 52.2445236,182.913908 73.5895406,200.102342 C73.6468537,200.143267 73.7082605,200.176006 73.7655735,200.216931 C73.9170437,200.343798 74.0521388,200.487035 74.2077028,200.613902 C76.6926328,202.651959 79.349502,204.526317 82.1128098,206.187866 C96.7767628,215.383678 113.377078,220 129.993769,220 C145.501042,220 161.020597,215.977088 174.996794,207.910802 C198.699833,194.233719 214.714737,170.857449 218.927246,143.785666 C218.935433,143.720186 218.927246,143.654707 218.935433,143.593319 C218.972277,143.392788 219.02959,143.200441 219.062341,142.995817 C219.59044,139.828234 219.881099,136.586986 219.938412,133.366201 C221.166548,99.9387901 203.952165,68.7990776 174.996794,52.085372" id="path" stroke-width="0.5" fill="none" opacity="0.25"></path>
                        <path d="M179.996437,43.4281911 C153.659727,28.231433 122.260363,25.8077728 93.8585633,36.7983666 C93.7857848,36.8256498 93.7357496,36.8665747 93.6675198,36.8938579 C93.453733,36.9711604 93.2353976,37.0257268 93.0261595,37.1075765 C89.6828983,38.3580578 86.3942209,39.8768242 83.2692951,41.6138564 C50.405265,59.0069144 30,92.8608534 30,129.997874 C30,160.405032 43.6050262,188.793231 67.3217118,207.891491 C67.3853929,207.936963 67.4536228,207.97334 67.5173039,208.018812 C67.6856042,208.159776 67.8357098,208.318928 68.0085586,208.459891 C70.769592,210.724399 73.7216689,212.807019 76.7920109,214.653184 C93.085292,224.870753 111.530087,230 129.993076,230 C147.22338,230 164.46733,225.530098 179.996437,216.567557 C206.333148,201.370799 224.127485,175.397166 228.808051,145.317407 C228.817148,145.244652 228.808051,145.171896 228.817148,145.103688 C228.858086,144.880875 228.921767,144.667157 228.958156,144.439796 C229.544933,140.92026 229.867887,137.318874 229.931569,133.740224 C231.296165,96.5986557 212.169072,61.9989751 179.996437,43.4281911" id="path" stroke-width="0.4" fill="none" opacity="0.2"></path>
                        <path d="M184.996081,34.7710102 C156.025699,18.0545762 121.4864,15.3885501 90.2444196,27.4782033 C90.1643633,27.5082148 90.1093246,27.5532321 90.0342718,27.5832437 C89.7991063,27.6682764 89.5589373,27.7282995 89.3287754,27.8183342 C85.6511881,29.1938636 82.033643,30.8645066 78.5962247,32.775242 C42.4457915,51.9076058 20,89.1469387 20,129.997662 C20,163.445535 34.9655288,194.672554 61.053883,215.68064 C61.1239322,215.730659 61.198985,215.770674 61.2690343,215.820694 C61.4541646,215.975753 61.6192807,216.150821 61.8094145,216.30588 C64.8465512,218.796839 68.0938358,221.087721 71.4712119,223.118503 C89.3938212,234.357828 109.683095,240 129.992384,240 C148.945718,240 167.914063,235.083108 184.996081,225.224313 C213.966463,208.507879 233.540234,179.936883 238.688856,146.849148 C238.698863,146.769117 238.688856,146.689086 238.698863,146.614057 C238.743895,146.368963 238.813944,146.133872 238.853972,145.883776 C239.499426,142.012286 239.854676,138.050761 239.924725,134.114246 C241.425781,93.2585212 220.385979,55.1988726 184.996081,34.7710102" id="path" stroke-width="0.3" fill="none" opacity="0.15"></path>
                        <path d="M189.995725,26.1138293 C158.391672,7.87771954 120.712436,4.96932741 86.6302759,18.1580399 C86.5429418,18.1907798 86.4828995,18.2398896 86.4010237,18.2726295 C86.1444796,18.3653925 85.8824771,18.4308722 85.6313914,18.5290918 C81.6194779,20.0296694 77.6730651,21.852189 73.9231542,23.9366277 C34.486318,44.8082973 10,85.4330241 10,129.997449 C10,166.486038 26.3260314,200.551877 54.7860541,223.469789 C54.8624715,223.524355 54.9443473,223.568009 55.0207647,223.622575 C55.222725,223.791731 55.4028517,223.982714 55.6102704,224.15187 C58.9235105,226.869279 62.4660027,229.368423 66.150413,231.583821 C85.7023504,243.844904 107.836104,250 129.991691,250 C150.668056,250 171.360796,244.636117 189.995725,233.881069 C221.599778,215.644959 242.952982,184.476599 248.569661,148.380888 C248.580578,148.293582 248.569661,148.206276 248.580578,148.124426 C248.629703,147.85705 248.706121,147.600588 248.749788,147.327756 C249.453919,143.104312 249.841465,138.782649 249.917882,134.488268 C251.555398,89.9183868 228.602886,48.3987701 189.995725,26.1138293" id="path" stroke-width="0.2" fill="none" opacity="0.1"></path>
                        <path d="M189.995725,26.1138293 C158.391672,7.87771954 120.712436,4.96932741 86.6302759,18.1580399 C86.5429418,18.1907798 86.4828995,18.2398896 86.4010237,18.2726295 C86.1444796,18.3653925 85.8824771,18.4308722 85.6313914,18.5290918 C81.6194779,20.0296694 77.6730651,21.852189 73.9231542,23.9366277 C34.486318,44.8082973 10,85.4330241 10,129.997449 C10,166.486038 26.3260314,200.551877 54.7860541,223.469789 C54.8624715,223.524355 54.9443473,223.568009 55.0207647,223.622575 C55.222725,223.791731 55.4028517,223.982714 55.6102704,224.15187 C58.9235105,226.869279 62.4660027,229.368423 66.150413,231.583821 C85.7023504,243.844904 107.836104,250 129.991691,250 C150.668056,250 171.360796,244.636117 189.995725,233.881069 C221.599778,215.644959 242.952982,184.476599 248.569661,148.380888 C248.580578,148.293582 248.569661,148.206276 248.580578,148.124426 C248.629703,147.85705 248.706121,147.600588 248.749788,147.327756 C249.453919,143.104312 249.841465,138.782649 249.917882,134.488268 C251.555398,89.9183868 228.602886,48.3987701 189.995725,26.1138293" id="path" stroke-width="0.2" fill="none" opacity="0.1"></path>
                        <path d="M194.995368,17.4566484 C160.757645,-2.29913716 119.938472,-5.4498953 83.0161323,8.83787659 C82.9215202,8.87334479 82.8564745,8.92654709 82.7677757,8.96201528 C82.4898529,9.06250851 82.2060169,9.1334449 81.9340073,9.23984949 C77.5877677,10.8654752 73.3124872,12.8398715 69.2500837,15.0980133 C26.5268445,37.7089887 0,81.7191094 0,129.997236 C0,169.526542 17.6865341,206.4312 48.5182253,231.258938 C48.6010108,231.318052 48.6897096,231.365343 48.7724951,231.424456 C48.9912854,231.607709 49.1864227,231.814606 49.4111262,231.997859 C53.0004697,234.941719 56.8381696,237.649125 60.8296141,240.049139 C82.0108796,253.331979 105.989113,260 129.990999,260 C152.390394,260 174.807529,254.189127 194.995368,242.537825 C229.233092,222.782039 252.365731,189.016316 258.450466,149.912629 C258.462293,149.818047 258.450466,149.723465 258.462293,149.634795 C258.515512,149.345138 258.598297,149.067304 258.645603,148.771735 C259.408413,144.196338 259.828254,139.514536 259.911039,134.862291 C261.685014,86.5782523 236.819794,41.5986676 194.995368,17.4566484" id="path" stroke-width="0.1" fill="none" opacity="0.05"></path>
                        <path d="M115.539786,127.434526 C115.778136,127.461809 116.016485,127.5091 116.254835,127.552754 C116.465892,127.589131 116.67877,127.618233 116.886188,127.663705 C117.806836,127.880152 118.709289,128.203913 119.577172,128.645902 C119.950162,128.875081 120.33043,129.091528 120.714336,129.295242 C122.208114,130.282895 123.47264,131.616136 124.404205,133.229484 C125.361242,134.884666 125.885247,136.688997 125.967122,138.591548 C125.912539,140.657797 126.167263,142.734961 126.776783,144.763014 C126.896867,145.170443 127.064258,145.563322 127.209815,145.963476 C127.324441,146.272686 127.415414,146.585534 127.544596,146.891106 L127.586443,146.976593 L127.586443,146.976593 C127.679236,147.191221 127.784765,147.394936 127.881196,147.602289 C128.101351,148.066103 128.339701,148.519005 128.592606,148.960993 C128.703593,149.157433 128.809122,149.353872 128.931026,149.544854 C129.28946,150.128715 129.678825,150.687112 130.095481,151.22732 C130.199191,151.360098 130.306539,151.48742 130.412068,151.616561 C130.821447,152.120391 131.252659,152.600576 131.709344,153.058934 C131.780303,153.129871 131.845804,153.206264 131.918582,153.275381 C132.442587,153.788306 133.002981,154.264853 133.585209,154.717754 C133.708933,154.814155 133.838114,154.908737 133.963657,155.0015 C134.571358,155.450764 135.195433,155.878201 135.859537,156.260166 C136.541835,156.654864 137.249606,156.989538 137.964654,157.298748 C138.192087,157.396967 138.421339,157.482455 138.652411,157.57158 C139.150943,157.764382 139.658573,157.935356 140.169842,158.088143 C140.439122,158.166354 140.704764,158.251842 140.975863,158.319141 C141.550813,158.461013 142.134861,158.573784 142.726186,158.666547 C142.966355,158.704744 143.206524,158.748397 143.450332,158.777499 C143.548583,158.788412 143.645014,158.801144 143.743265,158.812058 C133.901796,163.513867 122.326379,162.886353 112.974345,157.009546 C112.948873,156.993176 112.92522,156.978625 112.899747,156.964074 C111.999114,156.423866 111.13123,155.81454 110.323389,155.150648 C109.999525,154.885092 109.697494,154.595889 109.391825,154.313963 C109.198962,154.133893 108.997001,153.9611 108.809597,153.775574 C108.543955,153.510017 108.298328,153.229909 108.045423,152.953439 C107.876213,152.764275 107.697906,152.582387 107.534154,152.389586 C107.266693,152.071281 107.021066,151.736607 106.7718,151.401933 C106.644437,151.230958 106.507978,151.070896 106.386074,150.898102 C106.02582,150.38154 105.683761,149.848608 105.365356,149.299305 C103.86248,146.696485 102.936374,143.871762 102.616149,140.906984 C102.534273,140.157605 102.492425,139.40095 102.490606,138.655209 C102.494245,138.584272 102.5088,138.515155 102.512439,138.446037 C102.541551,137.942207 102.597954,137.438377 102.694386,136.943641 C102.7144,136.818138 102.750789,136.698092 102.778081,136.578045 C102.878151,136.123325 103.000055,135.67588 103.15289,135.237529 C103.189279,135.130215 103.231127,135.022901 103.269335,134.917406 C103.442184,134.462686 103.642325,134.022516 103.867938,133.595079 C103.913425,133.511411 103.951634,133.427742 103.99712,133.345892 C104.277317,132.847519 104.588445,132.363696 104.935963,131.910795 C105.358078,131.363311 105.840235,130.874032 106.346046,130.413855 C106.458852,130.311997 106.573478,130.215597 106.689924,130.117377 C107.21029,129.682664 107.756128,129.275235 108.351093,128.929647 L108.352912,128.929647 C108.855083,128.638626 109.377269,128.400353 109.906732,128.189362 C110.077762,128.122064 110.248791,128.069316 110.42164,128.011112 C110.796449,127.880152 111.178536,127.7692 111.564262,127.678256 C111.748028,127.636422 111.937252,127.592769 112.122837,127.55821 C112.568605,127.478179 113.016193,127.421794 113.471058,127.394511 C113.582045,127.387235 113.693033,127.369046 113.8022,127.365409 C114.37715,127.345401 114.957559,127.369046 115.539786,127.434526 Z M148.08632,103.69448 C157.079921,109.865946 162.325429,120.200833 161.908772,131.23417 C161.908772,131.265091 161.908772,131.294194 161.906953,131.323296 C161.890578,132.370972 161.794146,133.425923 161.623117,134.460867 C161.555797,134.873753 161.455726,135.279364 161.364753,135.684974 C161.304711,135.943256 161.257405,136.203356 161.188265,136.457999 C161.091834,136.818138 160.973569,137.174639 160.857123,137.53114 C160.778887,137.771232 160.713386,138.016781 160.626052,138.253236 C160.485953,138.63702 160.320382,139.013528 160.160269,139.390037 C160.074755,139.591933 160.000157,139.797466 159.907364,139.995724 C159.639903,140.566853 159.350609,141.128888 159.032203,141.676371 C157.529328,144.279191 155.546114,146.492771 153.140786,148.255267 C152.533085,148.699074 151.898093,149.110142 151.250365,149.48665 C151.183045,149.523028 151.112086,149.546673 151.044765,149.581232 C150.597178,149.804954 150.138673,150.003213 149.665613,150.168731 C149.549168,150.212384 149.425444,150.241486 149.30536,150.279683 C148.863231,150.419737 148.412004,150.537964 147.957139,150.623451 C147.846152,150.645278 147.735164,150.665286 147.625997,150.681656 C147.145659,150.758049 146.659862,150.807158 146.172247,150.827166 C146.081273,150.828985 145.9903,150.836261 145.899327,150.836261 C145.326197,150.845355 144.753066,150.819891 144.185394,150.743498 C144.021643,150.719852 143.863349,150.681656 143.701417,150.652553 C143.42122,150.603444 143.141023,150.548877 142.864465,150.477941 C142.697074,150.436106 142.535142,150.385178 142.371391,150.336068 C142.082096,150.246943 141.79826,150.150542 141.516244,150.03959 C141.377965,149.986843 141.243324,149.934095 141.108684,149.87771 C140.695666,149.69764 140.289926,149.50302 139.893284,149.27566 C139.392932,148.986458 138.92351,148.651783 138.477742,148.300739 C138.334005,148.18615 138.199365,148.062466 138.062905,147.944238 C137.762694,147.682319 137.477038,147.411306 137.205938,147.122104 C137.074937,146.98205 136.943936,146.841996 136.818393,146.694666 C136.527279,146.350898 136.25436,145.98894 136.003274,145.610613 C135.943232,145.519669 135.874092,145.434181 135.81405,145.341418 C135.508381,144.85032 135.237281,144.335577 135.00439,143.797188 C134.913416,143.586197 134.838819,143.366113 134.758762,143.149666 C134.680525,142.938675 134.595011,142.729504 134.531329,142.516695 C134.256591,141.614529 134.087381,140.672349 134.036436,139.701066 C134.050992,139.264534 134.045533,138.826183 134.029158,138.389652 C134.138326,136.601691 134.662331,134.841013 135.593895,133.229484 C136.549113,131.574301 137.850028,130.219234 139.456613,129.195204 C141.272436,128.207551 142.946341,126.950704 144.396452,125.408292 C144.691205,125.100901 144.94411,124.762589 145.217029,124.438828 C145.428087,124.182365 145.657339,123.94773 145.85566,123.680354 C145.877494,123.653071 145.893869,123.625788 145.913883,123.598504 C146.050343,123.414797 146.172247,123.223815 146.301428,123.034651 C146.596181,122.609033 146.872739,122.177958 147.129284,121.73415 C147.24209,121.541349 147.358536,121.352185 147.464065,121.155746 C147.789748,120.551877 148.080862,119.933457 148.339226,119.302305 C148.404726,119.149519 148.457491,118.993095 148.515713,118.83849 C148.748605,118.230984 148.950565,117.614383 149.121594,116.98505 C149.147067,116.888649 149.177998,116.799524 149.201651,116.703123 C149.383597,115.99194 149.516418,115.269844 149.618307,114.536835 C149.638321,114.380411 149.656516,114.223987 149.674711,114.065744 C149.758406,113.318184 149.816629,112.565167 149.816629,111.803055 C149.816629,111.801236 149.818448,111.799418 149.818448,111.797599 C149.818448,111.028212 149.760225,110.269738 149.672891,109.514902 C149.64378,109.267534 149.601932,109.023804 149.565543,108.778255 C149.487306,108.2817 149.396333,107.786964 149.279887,107.299504 C149.214387,107.008483 149.145247,106.71928 149.065191,106.430078 C148.943287,105.997184 148.794091,105.569747 148.643076,105.140491 C148.535728,104.836738 148.439296,104.529347 148.315573,104.23105 C148.240975,104.050981 148.166377,103.87273 148.08632,103.69448 Z M125.595952,99.0254101 C126.465655,99.0254101 127.324441,99.0908899 128.17413,99.1927473 C129.531448,99.3546277 130.863294,99.6310978 132.16239,100.049441 C132.579047,100.184038 132.988426,100.358651 133.399624,100.518712 C133.678002,100.629664 133.965477,100.718789 134.240216,100.838835 L134.242035,100.838835 C134.927972,101.142589 135.604812,101.486357 136.25436,101.859228 C136.318041,101.897425 136.370805,101.946534 136.432667,101.98655 C136.851143,102.261201 137.256883,102.559498 137.637151,102.888715 C137.731763,102.970565 137.820917,103.063328 137.917348,103.148815 C138.257587,103.461663 138.581452,103.787243 138.883482,104.138287 C138.95808,104.223775 139.032678,104.3129 139.103637,104.402025 C139.409307,104.776715 139.691323,105.169593 139.947867,105.578842 C139.998812,105.660691 140.053396,105.737084 140.102522,105.817115 C140.393636,106.310032 140.657458,106.8175 140.873974,107.346795 C140.937655,107.499581 140.983141,107.656005 141.037725,107.81061 C141.135976,108.079804 141.228769,108.348999 141.305186,108.625469 C141.352492,108.789168 141.388881,108.952867 141.428909,109.116567 C141.49623,109.413045 141.554452,109.71316 141.599939,110.015094 C141.621772,110.156967 141.647245,110.29884 141.66362,110.440713 C141.714565,110.889977 141.747315,111.341059 141.747315,111.797599 C141.747315,112.377822 141.694551,112.947132 141.612675,113.510985 C141.587203,113.692874 141.545355,113.869305 141.510785,114.047556 C141.436187,114.438615 141.343395,114.822399 141.228769,115.200727 C141.172365,115.382615 141.115962,115.566322 141.052281,115.746391 C140.899446,116.17201 140.721139,116.586715 140.522817,116.992325 C140.471873,117.094183 140.431844,117.197859 140.380899,117.296079 C140.1098,117.805366 139.796852,118.296464 139.449335,118.767554 C139.311056,118.95308 139.158221,119.129512 139.009025,119.307762 C138.863468,119.478737 138.727009,119.656987 138.575993,119.818868 C137.930084,120.506405 137.198661,121.124825 136.383542,121.65412 C135.997816,121.861472 135.619368,122.085195 135.251836,122.314374 C133.64889,123.114682 131.862179,123.543938 129.99905,123.543938 C128.086796,123.543938 126.261875,123.094674 124.573415,122.214335 C122.808537,121.133919 120.881726,120.315423 118.822096,119.8316 C118.405439,119.731561 117.985143,119.678814 117.564847,119.606059 C117.240983,119.549673 116.924397,119.471461 116.595074,119.431446 C116.562324,119.427808 116.529574,119.427808 116.498643,119.42417 C116.269391,119.396887 116.038319,119.385974 115.807247,119.369604 C115.295978,119.325951 114.786529,119.305943 114.278899,119.302305 C114.051467,119.302305 113.827673,119.29503 113.60024,119.302305 C112.917942,119.322313 112.239283,119.380517 111.566082,119.469642 C111.396872,119.493288 111.229481,119.526028 111.062091,119.551492 C110.427099,119.655168 109.793926,119.786128 109.17167,119.951646 C109.071599,119.977111 108.973348,119.997118 108.873278,120.024401 C108.169146,120.22266 107.477751,120.468209 106.795453,120.746498 C106.646257,120.806521 106.5007,120.872 106.353323,120.933842 C105.665567,121.233958 104.985088,121.561357 104.324623,121.941503 C104.322804,121.943322 104.320984,121.943322 104.319165,121.945141 C103.653242,122.328925 103.023708,122.758181 102.416008,123.209264 C102.214048,123.358412 102.023004,123.516655 101.830141,123.673078 C101.438957,123.987745 101.058689,124.313325 100.692977,124.655275 C100.472823,124.860808 100.256307,125.066342 100.047068,125.28097 C99.734121,125.601093 99.4375488,125.941224 99.1446154,126.284993 C98.9335578,126.532361 98.7134029,126.772453 98.5150816,127.028916 C98.3968166,127.183521 98.280371,127.338125 98.1657449,127.49273 C99.0154336,116.623092 105.345341,106.913901 115.114032,101.757371 C115.137685,101.74282 115.164977,101.728269 115.192269,101.715536 C116.109278,101.204431 117.069954,100.760623 118.048824,100.39139 C118.443648,100.244061 118.843929,100.127653 119.240572,100.003969 C119.493477,99.9257567 119.744563,99.8366314 119.997468,99.7693328 C120.359541,99.6711132 120.727072,99.5983579 121.092784,99.520146 C121.340231,99.4655795 121.584039,99.4019187 121.833305,99.3582655 C122.242684,99.2873291 122.653882,99.2400382 123.065081,99.1927473 C123.277958,99.165464 123.489015,99.1290864 123.701892,99.1090787 C124.329607,99.0563311 124.96096,99.0254101 125.595952,99.0254101 Z" id="shapegroup" stroke-width="1" fill-opacity="0.3" fill="#FD009C" fill-rule="evenodd"></path>
                    </g>
                </g>
            </g>
        </g>
    </g>
</svg>