<svg width="60" height="60" viewBox="0 0 60 60" fill="none" xmlns="http://www.w3.org/2000/svg">
<rect width="60" height="60" fill="#FD009C"/>
<path d="M50.2206 40.312L43.0055 29.9076C42.2218 28.7769 41.061 28.0996 39.8251 27.9502C39.5437 27.9157 39.2925 27.7424 39.1518 27.4811C39.0086 27.2197 38.9935 26.9024 39.1065 26.6251C39.6015 25.4146 39.6316 24.0092 39.099 22.7241L34.2179 10.8904C33.4943 9.13324 31.8589 8 30.0527 8C28.2464 8 26.611 9.13591 25.8874 10.8904L21.0062 22.7241C20.4761 24.0092 20.5038 25.4146 20.9987 26.6251C21.1117 26.9024 21.0941 27.2197 20.9535 27.4811C20.8103 27.7424 20.5616 27.9157 20.2802 27.9502C19.0442 28.0996 17.8836 28.7769 17.0998 29.9076L9.88472 40.312C8.81452 41.8558 8.7065 43.925 9.60837 45.5861C10.5128 47.2446 12.2562 48.1806 14.0499 47.97L26.1462 46.5408C27.46 46.3861 28.5931 45.6581 29.3316 44.597C29.4999 44.3543 29.7687 44.2103 30.0527 44.2103C30.3366 44.2103 30.6029 44.3543 30.7737 44.597C31.5122 45.6581 32.6453 46.3861 33.9591 46.5408L46.0554 47.97C47.849 48.1833 49.5925 47.2473 50.497 45.5861C51.3987 43.925 51.2907 41.8558 50.2206 40.312ZM24.1616 24.2092L29.0502 12.3623C29.2261 11.9383 29.6205 11.6637 30.0552 11.6637C30.4898 11.6637 30.8841 11.9383 31.06 12.3623L35.9488 24.2092C36.102 24.5826 36.0694 25.0146 35.8583 25.3559C35.6473 25.6972 35.2905 25.9024 34.9036 25.9024H25.204C24.8198 25.9024 24.4605 25.6972 24.2495 25.3559C24.0384 25.0146 24.0058 24.5826 24.159 24.2092H24.1616ZM26.6713 42.2452C26.4979 42.6105 26.1613 42.8556 25.7794 42.901L13.6706 44.3303C13.2385 44.381 12.8165 44.157 12.5979 43.757C12.3793 43.357 12.407 42.8583 12.6657 42.4852L19.8883 32.07C20.1169 31.742 20.4837 31.5554 20.8681 31.5794C21.2524 31.6007 21.5991 31.8274 21.7925 32.1819L21.8001 32.1952L26.6361 41.0852L26.6436 41.0985C26.8371 41.4532 26.8472 41.8852 26.6738 42.2478L26.6713 42.2452ZM31.0474 38.2242C30.8415 38.6 30.4647 38.8347 30.0527 38.8347C29.6431 38.8347 29.2638 38.6027 29.0577 38.2268L25.3422 31.398C25.1362 31.022 25.1362 30.5554 25.3422 30.1794C25.5482 29.8036 25.9251 29.5689 26.3371 29.5689H33.7657C34.1752 29.5689 34.5546 29.7982 34.7606 30.1767C34.9664 30.5554 34.9664 31.0194 34.7606 31.3954L31.0474 38.2242ZM47.5099 43.757C47.2913 44.157 46.8717 44.3836 46.4372 44.333L34.3284 42.9036C33.9465 42.8583 33.6099 42.6132 33.4365 42.2478C33.2632 41.8825 33.2732 41.4505 33.4667 41.0985L33.4742 41.0852L38.3103 32.1952L38.3178 32.1819C38.5113 31.8274 38.8578 31.6007 39.2422 31.5794C39.6266 31.558 39.9934 31.742 40.222 32.07L47.4446 42.4852C47.7033 42.8583 47.7285 43.357 47.5124 43.757H47.5099Z" fill="white"/>
</svg>
