<svg width="240" height="240" viewBox="0 0 240 240" fill="none" xmlns="http://www.w3.org/2000/svg">
<rect width="240" height="240" fill="black"/>
<path d="M155.3 184.722C147.69 184.722 140.09 182.732 133.23 178.772C124.88 173.952 118.47 166.722 114.69 157.872C109.18 144.952 110.04 130.572 117.05 118.412C120.61 112.252 125.66 106.992 131.65 103.192C132.53 102.632 133.45 102.092 134.39 101.592C141.89 96.7317 146.35 88.5317 146.35 79.6117C146.35 76.1817 145.69 72.8517 144.4 69.6917C142.36 64.7117 138.72 60.3716 134.15 57.4816C132.69 56.6416 131.16 55.8717 129.61 55.1817C123.52 52.4917 117.04 51.1317 110.34 51.1317C104.8 51.1317 99.38 52.0717 94.21 53.9217C89.58 55.5817 84.47 53.2116 82.75 48.5917C81.03 43.9816 83.34 38.8417 87.93 37.0617C113.26 27.2617 141.25 29.4216 164.74 42.9817C193.43 59.5416 210.49 90.4017 209.27 123.542C209.21 126.732 208.92 129.942 208.4 133.092C207.11 140.892 204.44 148.352 200.46 155.242C195.88 163.182 189.83 169.942 182.49 175.342C180.47 176.922 178.3 178.322 176.04 179.522C169.51 182.992 162.4 184.722 155.3 184.722ZM160.49 61.5516C160.69 61.9916 160.88 62.4317 161.06 62.8717C163.25 68.2017 164.35 73.8417 164.35 79.6117C164.35 94.8417 156.65 108.812 143.75 116.972C143.55 117.102 143.34 117.222 143.12 117.332C142.49 117.662 141.87 118.022 141.29 118.392C137.69 120.672 134.78 123.702 132.64 127.412C128.48 134.622 127.97 143.152 131.24 150.812C133.48 156.052 137.28 160.332 142.23 163.192C150.09 167.732 159.59 167.892 167.63 163.632C168.99 162.912 170.3 162.062 171.52 161.102C171.6 161.042 171.68 160.982 171.76 160.912C177.13 156.982 181.55 152.052 184.9 146.242C187.79 141.232 189.74 135.812 190.67 130.152C191.05 127.852 191.26 125.492 191.3 123.152C191.3 123.082 191.3 123.022 191.31 122.952C192.23 98.3617 180.54 75.3116 160.49 61.5516Z" fill="white"/>
<path d="M69.92 191.682C67.94 191.682 65.95 191.032 64.28 189.692C43.13 172.662 31 147.332 31 120.212C31 87.0819 49.2 56.8819 78.5 41.3719C81.29 39.8219 84.22 38.4719 87.2 37.3519C94.6 34.5719 102.4 33.1519 110.36 33.1519C119.53 33.1519 128.41 35.0119 136.75 38.6619C139.13 39.6219 141.43 40.8019 143.59 42.1519C156.59 50.2919 164.35 64.3019 164.35 79.6119C164.35 89.2519 161.3 98.4218 155.52 106.112C147.09 117.352 134.2 123.792 120.17 123.792C113.06 123.792 105.97 122.052 99.69 118.752C98.76 118.262 97.84 117.742 96.94 117.182C88.98 113.122 79.65 113.352 71.92 117.812C68.95 119.522 66.39 121.762 64.3 124.462C61 128.722 59.07 134.042 58.84 139.442C58.84 141.122 58.94 142.832 59.12 144.522C59.84 151.132 61.9 157.432 65.25 163.232C68.02 168.022 71.55 172.262 75.73 175.812C79.49 178.992 79.98 184.602 76.85 188.402C75.08 190.562 72.51 191.682 69.92 191.682ZM110.35 51.1419C104.56 51.1419 98.9 52.1719 93.53 54.1919C91.34 55.0119 89.2 56.0019 87.16 57.1419C87.1 57.1719 87.05 57.2019 86.99 57.2319C65.21 68.7319 51.1 90.3819 49.21 114.622C49.49 114.232 49.78 113.852 50.07 113.472C53.6 108.912 57.92 105.142 62.92 102.252C76.11 94.6318 92.06 94.3218 105.57 101.412C105.78 101.522 105.99 101.642 106.19 101.772C106.79 102.152 107.41 102.512 108.03 102.832C111.8 104.812 115.89 105.812 120.16 105.812C128.48 105.812 136.12 101.992 141.13 95.3219C144.55 90.7619 146.36 85.3319 146.36 79.6219C146.36 70.5419 141.75 62.2419 134.04 57.4119C132.74 56.5919 131.34 55.8919 129.91 55.3119C129.81 55.2719 129.72 55.2319 129.63 55.1919C123.54 52.5019 117.05 51.1419 110.35 51.1419Z" fill="white"/>
<path d="M120.16 209.411C103.69 209.411 87.2501 204.841 72.7201 195.721C69.9801 194.081 67.3501 192.221 64.8901 190.201C58.7801 185.181 53.6601 179.141 49.6801 172.251C45.1001 164.311 42.2601 155.691 41.2601 146.641C40.9101 144.101 40.7701 141.521 40.8601 138.971C41.4101 123.641 49.6601 109.921 62.9201 102.261C71.2701 97.4415 80.7301 95.5015 90.2901 96.6615C104.24 98.3515 116.26 106.281 123.28 118.441C126.84 124.601 128.87 131.611 129.16 138.701C129.2 139.751 129.21 140.811 129.17 141.871C129.63 150.791 134.5 158.761 142.23 163.221C145.2 164.931 148.42 166.031 151.8 166.491C157.14 167.211 162.71 166.231 167.5 163.721C168.96 162.871 170.39 161.941 171.76 160.941C177.13 157.011 181.55 152.081 184.9 146.271C187.67 141.471 189.57 136.301 190.55 130.901C191.43 126.061 196.04 122.811 200.89 123.641C205.74 124.461 209.04 129.031 208.28 133.891C204.1 160.721 188.24 183.891 164.75 197.451C150.9 205.431 135.52 209.411 120.16 209.411ZM58.8301 139.601C58.7701 141.141 58.8601 142.701 59.0801 144.231C59.0901 144.331 59.1101 144.431 59.1201 144.531C59.8401 151.141 61.9001 157.441 65.2501 163.241C68.1401 168.251 71.8601 172.641 76.3001 176.291C78.1001 177.771 80.0401 179.131 82.0401 180.331C82.1001 180.361 82.1501 180.401 82.2101 180.431C103.06 193.541 128.86 194.941 150.8 184.451C150.32 184.401 149.85 184.341 149.37 184.281C143.66 183.511 138.23 181.651 133.23 178.761C120.04 171.141 111.79 157.491 111.18 142.241C111.17 142.001 111.17 141.761 111.18 141.511C111.21 140.801 111.21 140.091 111.18 139.391C111.01 135.131 109.83 131.101 107.7 127.391C103.54 120.181 96.4101 115.481 88.1301 114.481C82.4701 113.801 76.8701 114.951 71.9201 117.801C64.0501 122.361 59.1601 130.501 58.8301 139.601Z" fill="white"/>
</svg>
